<?xml version="1.0" encoding="UTF-8"?>
<svg version="1.1" viewBox="0 0 2048 1488" width="586" height="426" xmlns="http://www.w3.org/2000/svg">
<path transform="translate(1077,52)" d="m0 0h81l12 2 14 6 8 7 7 11 4 13 1 94v180l-3 10-6 11-10 10-11 6-11 3-65 1-5 36-8 61-2 17h-2l-15-20-14-19-12-16-8-14-12-16-14-19-7-9-10-1h-59l6 14 17 47 14 38 12 30 11 30-1 8-10 40-2 4-11 7-21 14-12 6-16 11-11 9-21 14-1 2 6 16 2 7 5-2 17-13 5-4 18-10 21-10 19-7 22-6 28-5 21-2h23l24 2 28 5 31 9 5 2-1-6 6-12 8-13 9-16 13-6 29-11 8-4 21-1-2-6-10-9-3-3v7l-3 5-6 3-10-1-12-7-5-1-9-1-4-6v-2l-10 1-4-2-1-7 1-10-4-10 2-9 7-6 16-6 6-4 6-18 5-5 10-18 10-11 11-7 10-4 16-7 12-3 12 1 14 4 34 17 10 9 4 9 4 17 3 6 5 4 11 4 19 5 4 2 3 11-1 11v13l-9 4-8 7-8 16-5 17-27-1-21-2 15 15 7 8 12 14 16 16 9 11 10 11 8 10 8 11 9 10 9 11 4 5 2 13 3 30v10l-12 10-20 16-7 7-14 11-15 12-9 7-1 5-1 30v29l4 84v23l-10 46-9 39-11 47-4 21-5 92-2 39 3-1h30l30 3 42 6 21 2 31 1h69l96-1h23l-6-87-2-28v-6h-14l-2-6-5-41-1-21 2-3-7-1-85-3-37-1-3-1v-27l9-271 3-81 1-1h23l69 2h15l-14-12-16-13-10-8-16-13-10-8-3-3-5-28-8 6-11 7-9 4-9 2h-11l-14-3-16-8-13-12-5-8-5-13-1-7v-9l3-14 5-12 10-13 11-8 8-4 10-3 15-1 14 3 14 7 12 11 7 11 5 11 5-12 19-40 8-16 14-29 14-31 9-24 5-3-10-2-29-5-5-1-2 12-12 49-6 24-4 8-5 4-8 4-4 1h-10l-36-7-8-4-7-8-4-10 1-12 17-71 14-55 4-9 5-5 8-4h12l44 10 35 5 15 1h16l18-2 18-5 12-6 11-9 11-14 9-17 8-22 4-18 1-6v-27l-3-15-5-12-6-11-8-10-10-9-16-8-13-6-14-5-26-5-18-1-17 2-15 4-17 9-16 12-9 13-12 25-5 5-8 5-4 1h-9l-37-9-10-6-6-9-2-5v-12l5-13 12-24 11-16 11-13 11-11 11-9 8-6 16-9 20-8 23-6 24-3h27l26 3 23 5 21 6 20 8 16 8 12 7 17 14 10 9 11 11 10 13 9 14 10 19 6 20 3 17 1 11v28l-3 25-8 32-8 23-9 19-12 19-12 14-9 9-20 13-17 8-19 6-22 4-34 3 3 8-1 5-14 15-1 3 6 2-10 39-6 28-15 56-9 34 1 4 11 9 8 6 8 8 7 8 5-1 7-3-2-4-5-12-4-11-1-3-8-2-7-12-1-3v-12l4-10 7-11 2-5 2-13 4-13 6-11 6-8 9-6 15-7 14-3h13l14 3 17 8 10 9 6 7 8 15 5 17 3 15 5 10 1 4v9l-7 14-9 7-9 9-13 4h-8l-1-11-8 9-6 4 1 5 1 1 11 1 3 3 2-4 10 1 32 8 6 4 11 14 25 37 10 15 15 22 11 14 2 3-1 8-10 28-10 14-10 12-11 14-9 11-8 10-6 8 4 17 18 63v3l-6 2 3 17 1 8v30l-5 26-11 43-9 31-3 11-1 13v44l-1 1h-13v9l6 11 11 17 6 14 10 29 17 49 3 7 4-1h9l36 9 16 6 14 7 6 5 3 5 1 9-7 14-11 12-9 9-11 9-14 9-16 8-24 9-28 7-27 4-44 4-34 2h-29l-49-3-83-6-51-5-45-3-62-3-36-1-107-1h-190l-65 2-64 3-97 3-69 1-161 1-170 6-38 1h-55l-30-2-24-3-27-6-25-8-19-8-11-6-10-9-7-8-5-11-2-7v-20l4-13 7-12 6-7 11-7 16-7 22-6 17-3 21-2 34-1h22l17 1-4-46-11-110-3-21-2-9v-4l-15-2-35-12-28-10-9-3-1-2-1-13v-46l3-23 5-19 7-19 14-29 11-23 16-39v-3l-10-8-18-13-19-14-18-13-5-4 2-5 13-25 8-14 3-3-1-4-9-10-13-19-11-17-11-19-13-24-6-15-5-12-8-17-10-27-8-25-7-28-5-28-2-20v-41l3-21 5-16 7-13 11-13 7-8 10-9 11-8 21-11 9-3h13l8 3 7 6 6 10 14 28 8 14 12 23 8 17 1 3v12l-4 9-7 8-10 6-24 12-3 3h-2l-2 4-4 9-1 7v10l3 21 5 21 8 23 9 21 7 13 7 10 8 12h1l4-20 8-20 2-13v-41l2-18 5-13 6-11 16-16 14-9 16-6 23-6h23l14 5 10 8 10 10 8 14 3 9 1 13v6l8 4 8 11 1 10-1 9-7 9-5 4 2 10 6 12 2 3v5l-9 3-11 2 8 5 16 9 18 12 11 9 2 1v-7l6-31 4-30 6-2h2l-2-13v-9l4-1 4 3v2h3l2-6 7-13 9-6 4-2 7 7-1 5-6 10-8 15-4 6-1 5 5 2 1 6v56l-2 32-4 31-2 8-1 2h-15l-16-3-20-6 11 37 10 42 15 75 11 64 6 22 11 30 5 17 14 36 7 16 2 3-1 4-25 10-18 5-32 5-28 3 2 3 3 39 6 93 5 77v6l36-1 114-7 42-4 35-5v-13l-5-89-6-103-6-105v-28l-22 12h-5l-2-4-2-17v-36l1-36 2-33 6-44 8-45 7-30 1-3-21 10-10 6-16-15-17-16-9-8-1-2v-25l6-145 2-8-9-14-4-7 1-6 14-27 3-4 6 2 13 7v10l-1 20 9 9-1 9-2 8 10 3 1 1 3 30 3 31 6 45 2 13v8l6-4 10-9 12-9 9-6 28-24 9-8 11-5 13-3 9-1v-2l-17-17-6-12-3-9-2-9-5-6-1 2-1 7-5 5-3 1h-12l-7-6-6-11v-12l7-11-2-9-1-4v-10l4-7 10-8 4-5 4-10 8-7 16-11 12-5 9-2h16l15 4 11 6 10 9 7 8 8 13 5 12 3 13 1 8 7 8 4 6v17l-7 10-5 4-11 1-3 10-7 9-10 7-9 3-7 1-4 6-1 6 18 6 10-3 27-11 42-17 11-5 3-1-1-11-9-45-5-35-11-56 1-5h5l-2-5-1-1-275-1-10-3-9-6-9-9-7-14-2-7-1-34v-241l4-12 7-11 9-8 9-4 9-2 9-1h129zm223 524-8 7-6 4v2h8l9-3-1-9zm-519 29-8 16-10 19-3 6-3 72-3 75-3 25-7 37-9 39-10 42v4l4 1h18l32-5 12-2 2-1 1-50 2-15 5-23 11-33 7-16 12-22 10-15 7-7 7-9 4-6-4-18-18-67-9-30-4-16-1-1zm300 119-14 3-16 8-10 8-4 5-7 15-1 4v19l4 10 6 10 10 6 9 3 8 1h15l14-3 12-5 13-9 7-8 7-14 2-7v-15l-4-11-7-9-9-6-11-4-6-1zm289 24-3 8-4 21 4-1 7-8 8-9v-2l-8-7zm430 20-1 1-2 33 4-2 7-12-1-7-6-13zm-1522 29m1 1m1 1v2l2-1zm2 2m1 1-1 6 7 8 9 8 5 1 1-1v-5l-6-7-10-8zm712 40-3 2-1 9 15 5 7 6 3 5v12l-12 70-8 42-9 51-1 6v16l4 12 7 10 9 8 14 6 5 1h17l17-4 26-11 38-17 1-4-6-15-17 4-6 1h-12l-4-3-1-5 9-51 12-67 7-39 2-12v-10l-4-10-6-8-8-6-8-3-8-1zm-183 177-1 1-5 53-4 31-8 39-4 27-9 43-9 39-9 44 1 3 22-4 31-4 20-2h10l7 1-1-15-8-54-17-115-11-66-4-21zm783 59-1 4v12l2 1 23 1h26l1-15-1-1-40-2zm-337 18-16 13-8 7-2 8-1 8v38l2 118 1 6 4-1v-2l6-1h10l8 3 3 1v-30l-5-136v-32zm-852 5-1 1-3 34-7 87-5 63v17l7 2 53 9 7 2-1-10-7-35-12-56-8-38-5-33-7-36-2-7zm506 35-3 42-7 83-1 13v13l29-1h196l40 1 8 2v-9l-10-65-5-34v-18l-25 7-27 6-23 3-15 1h-18l-24-2-28-5-30-9-19-8-16-8-15-8-5-4zm799 46-2 6-2 10-1 10-1 37-6 61 2 1 3-1h20l31 2 27 3 7 1-8-16-12-23-6-14-13-23-8-14-9-15-5-10-2-14z" fill="#FCFCFC"/>
<path transform="translate(1077,52)" d="m0 0h81l12 2 14 6 8 7 7 11 4 13 1 94v180l-3 10-6 11-10 10-11 6-11 3-65 1-5 36-8 61-2 17h-2l-15-20-14-19-12-16-8-14-12-16-14-19-7-9-10-1h-59l6 14 17 47 14 38 12 30 11 30-1 8-10 40-2 4-11 7-21 14-12 6-16 11-11 9-21 14-1 2 6 16 2 7 5-2 17-13 5-4 18-10 21-10 19-7 22-6 28-5 21-2h23l24 2 28 5 31 9 5 2-1-6 6-12 8-13 9-16 13-6 29-11 8-4 21-1-2-6-10-9-3-3v7l-3 5-6 3-10-1-12-7-5-1-9-1-4-6v-2l-10 1-4-2-1-7 1-10-4-10 2-9 7-6 16-6 6-4 6-18 5-5 10-18 10-11 11-7 10-4 16-7 12-3 12 1 14 4 34 17 10 9 4 9 4 17 3 6 5 4 11 4 19 5 4 2 3 11-1 11v13l-9 4-8 7-8 16-5 17-27-1-21-2 15 15 7 8 12 14 16 16 9 11 10 11 8 10 8 11 9 10 9 11 4 5 2 13 3 30v10l-12 10-20 16-7 7-14 11-15 12-9 7-1 5-1 30v29l4 84v23l-10 46-9 39-11 47-4 21-5 92-1 18v23l-2 10-1 1h-16l-4 27v18l-2 13-3 11-4 8-6 5-2 1h-7l-5-4-3-4-1-4v-14l4-18 3-9 1-2 1-15v-14l-9-1-1-2-2-63-4-111v-31l-8 6-13 10-4 5-2 14v38l2 128-2 1h-14v29l1 3v24l-4 17-6 10-6 4-7 1-7-4-4-5-1-3v-11l2-14 3-9v-10l-3-28-1-5-9-2-2-6-4-31-11-70-1-8v-17l-36 10-21 4-17 2-15 1h-18l-24-2-28-5-30-9-19-8-16-8-15-8-7-5 1 4-6 74-5 60-1 18-3 31-1 18 11 9 5 6-1 7-13 13-4-1-8-4-15-7-9-6-1-17-8-49-6-45-12-80-11-73-9-54-4-20-5 53-4 31-8 39-4 27-9 43-9 39-12 59-8 33-1 15-19 10-13 5h-5l-12-12 1-5 10-11 4-5v-20l-10-175-7-119-2-36v-28l-22 12h-5l-2-4-2-17v-36l1-36 2-33 6-44 8-45 7-30 1-3-21 10-10 6-16-15-17-16-9-8-1-2v-25l6-145 2-8-9-14-4-7 1-6 14-27 3-4 6 2 13 7v10l-1 20 9 9-1 9-2 8 10 3 1 1 3 30 3 31 6 45 2 13v8l6-4 10-9 12-9 9-6 28-24 9-8 11-5 13-3 9-1v-2l-17-17-6-12-3-9-2-9-5-6-1 2-1 7-5 5-3 1h-12l-7-6-6-11v-12l7-11-2-9-1-4v-10l4-7 10-8 4-5 4-10 8-7 16-11 12-5 9-2h16l15 4 11 6 10 9 7 8 8 13 5 12 3 13 1 8 7 8 4 6v17l-7 10-5 4-11 1-3 10-7 9-10 7-9 3-7 1-4 6-1 6 18 6 10-3 27-11 42-17 11-5 3-1-1-11-9-45-5-35-11-56 1-5h5l-2-5-1-1-275-1-10-3-9-6-9-9-7-14-2-7-1-34v-241l4-12 7-11 9-8 9-4 9-2 9-1h129zm223 524-8 7-6 4v2h8l9-3-1-9zm-519 29-8 16-10 19-3 6-3 72-3 75-3 25-7 37-9 39-10 42v4l4 1h18l32-5 12-2 2-1 1-50 2-15 5-23 11-33 7-16 12-22 10-15 7-7 7-9 4-6-4-18-18-67-9-30-4-16-1-1zm300 119-14 3-16 8-10 8-4 5-7 15-1 4v19l4 10 6 10 10 6 9 3 8 1h15l14-3 12-5 13-9 7-8 7-14 2-7v-15l-4-11-7-9-9-6-11-4-6-1zm289 24-3 8-4 21 4-1 7-8 8-9v-2l-8-7zm-375 94-3 2-1 9 15 5 7 6 3 5v12l-12 70-8 42-9 51-1 6v16l4 12 7 10 9 8 14 6 5 1h17l17-4 26-11 38-17 1-4-6-15-17 4-6 1h-12l-4-3-1-5 9-51 12-67 7-39 2-12v-10l-4-10-6-8-8-6-8-3-8-1z" fill="#3F4AB7"/>
<path transform="translate(1077,52)" d="m0 0h81l12 2 14 6 8 7 7 11 4 13 1 94v180l-3 10-6 11-10 10-11 6-11 3-65 1-5 36-8 61-2 17h-2l-15-20-14-19-12-16-8-14-12-16-14-19-7-9-10-1h-59l6 14 17 47 14 38 12 30 11 30-1 8-10 40-2 4-11 7-21 14-12 6-16 11-11 9-21 14-1 2 6 16 3 9-8 7-10 9-15 15-2-1-16-61-10-35-8-27-1-6h-42l-11 23-6 11-3 6-3 72-3 75-3 25-7 37-9 39-11 46 15 1-1 2-15 5-15 8-10 7-22 12h-5l-2-4-2-17v-36l1-36 2-33 6-44 8-45 7-30 1-3-21 10-10 6-16-15-17-16-9-8-1-2v-25l6-145 2-8-9-14-4-7 1-6 14-27 3-4 6 2 13 7v10l-1 20 9 9-1 9-2 8 10 3 1 1 3 30 3 31 6 45 2 13v8l6-4 10-9 12-9 9-6 28-24 9-8 11-5 13-3 9-1v-2l-17-17-6-12-3-9-2-9-5-6-1 2-1 7-5 5-3 1h-12l-7-6-6-11v-12l7-11-2-9-1-4v-10l4-7 10-8 4-5 4-10 8-7 16-11 12-5 9-2h16l15 4 11 6 10 9 7 8 8 13 5 12 3 13 1 8 7 8 4 6v17l-7 10-5 4-11 1-3 10-7 9-10 7-9 3-7 1-4 6-1 6 18 6 10-3 27-11 42-17 11-5 3-1-1-11-9-45-5-35-11-56 1-5h5l-2-5-1-1-275-1-10-3-9-6-9-9-7-14-2-7-1-34v-241l4-12 7-11 9-8 9-4 9-2 9-1h129z" fill="#4FC5A4"/>
<path transform="translate(1617,68)" d="m0 0h27l26 3 23 5 21 6 20 8 16 8 12 7 17 14 10 9 11 11 10 13 9 14 10 19 6 20 3 17 1 11v28l-3 25-8 32-8 23-9 19-12 19-12 14-9 9-20 13-17 8-19 6-22 4-34 3 3 8-1 5-14 15-1 3 6 2-10 39-6 28-15 56-9 34 1 4 11 9 8 6 8 8 7 8 5-1 7-3-2-4-5-12-4-11-1-3-8-2-7-12-1-3v-12l4-10 7-11 2-5 2-13 4-13 6-11 6-8 9-6 15-7 14-3h13l14 3 17 8 10 9 6 7 8 15 5 17 3 15 5 10 1 4v9l-7 14-9 7-9 9-13 4h-8l-1-11-8 9-6 4 1 5 1 1 11 1 3 3 2-4 10 1 32 8 6 4 11 14 25 37 10 15 15 22 11 14 2 3-1 8-10 28-10 14-10 12-11 14-9 11-8 10-6 8 4 17 18 63v3l-13 2-40 5-33 5-4 117-1 22-1 5-2 1h-28l-63-2-9-1-85-3-37-1-3-1v-27l9-271 3-81 1-1h23l69 2h15l-14-12-16-13-10-8-16-13-10-8-3-3-5-28-8 6-11 7-9 4-9 2h-11l-14-3-16-8-13-12-5-8-5-13-1-7v-9l3-14 5-12 10-13 11-8 8-4 10-3 15-1 14 3 14 7 12 11 7 11 5 11 5-12 19-40 8-16 14-29 14-31 9-24 5-3-10-2-29-5-5-1-2 12-12 49-6 24-4 8-5 4-8 4-4 1h-10l-36-7-8-4-7-8-4-10 1-12 17-71 14-55 4-9 5-5 8-4h12l44 10 35 5 15 1h16l18-2 18-5 12-6 11-9 11-14 9-17 8-22 4-18 1-6v-27l-3-15-5-12-6-11-8-10-10-9-16-8-13-6-14-5-26-5-18-1-17 2-15 4-17 9-16 12-9 13-12 25-5 5-8 5-4 1h-9l-37-9-10-6-6-9-2-5v-12l5-13 12-24 11-16 11-13 11-11 11-9 8-6 16-9 20-8 23-6zm183 700-1 1-2 33 4-2 7-12-1-7-6-13zm-205 310-1 4v12l2 1 23 1h26l1-15-1-1-40-2z" fill="#3F4AB7"/>
<path transform="translate(221,355)" d="m0 0h13l8 3 7 6 6 10 14 28 8 14 12 23 8 17 1 3v12l-4 9-7 8-10 6-24 12-3 3h-2l-2 4-4 9-1 7v10l3 21 5 21 8 23 9 21 7 13 7 10 8 12h1l4-20 8-20 2-13v-41l2-18 5-13 6-11 16-16 14-9 16-6 23-6h23l14 5 10 8 10 10 8 14 3 9 1 13v6l8 4 8 11 1 10-1 9-7 9-5 4 2 10 6 12 2 3v5l-9 3-11 2 8 5 16 9 18 12 11 9 2 1v-7l6-31 4-30 6-2h2l-2-13v-9l4-1 4 3v2h3l2-6 7-13 9-6 4-2 7 7-1 5-6 10-8 15-4 6-1 5 5 2 1 6v56l-2 32-4 31-2 8-1 2h-15l-16-3-20-6 11 37 10 42 15 75 11 64 6 22 11 30 5 17 14 36 7 16 2 3-1 4-25 10-18 5-32 5-28 3 2 3 3 39 6 93 4 61v22l1 2 2 25 2 6 6 1v2l5 2 10 8-1 6-7 10-2 3-7-1-23-7-5-5-5-25-6-31v-3h-2l-8-40-12-56-8-38-5-33-7-36-1-6h-9l-3 34-7 87-5 63-3 34-5 63-1 8h-2v7l-4 4-14 4-5 1v2l-5 2h-5l-7-7-4-6 1-5 10-9 4-5v-15l-3-34-1-18-3-17-1-1-4-45-11-110-3-21-2-9v-4l-15-2-35-12-28-10-9-3-1-2-1-13v-46l3-23 5-19 7-19 14-29 11-23 16-39v-3l-10-8-18-13-19-14-18-13-5-4 2-5 13-25 8-14 3-3-1-4-9-10-13-19-11-17-11-19-13-24-6-15-5-12-8-17-10-27-8-25-7-28-5-28-2-20v-41l3-21 5-16 7-13 11-13 7-8 10-9 11-8 21-11zm57 442m1 1m1 1v2l2-1zm2 2m1 1-1 6 7 8 9 8 5 1 1-1v-5l-6-7-10-8z" fill="#4FC5A4"/>
<path transform="translate(1281,446)" d="m0 0 12 1 14 4 34 17 10 9 4 9 4 17 3 6 5 4 11 4 19 5 4 2 3 11-1 11v13l-9 4-8 7-8 16-5 17-27-1-21-2 15 15 7 8 12 14 16 16 9 11 10 11 8 10 8 11 9 10 9 11 4 5 2 13 3 30v10l-12 10-20 16-7 7-14 11-15 12-9 7-1 5-1 30v29l4 84v23l-10 46-9 39-11 47-4 21-5 92-1 18v23l-2 10-1 1h-16l-4 27v18l-2 13-3 11-4 8-6 5-2 1h-7l-5-4-3-4-1-4v-14l4-18 3-9 1-2 1-15v-14l-9-1-1-2-2-63-4-111v-33l7-8 12-17 7-13 8-13 3-7 5-8 3-7 4-9 10-28 5-20 3-19 2-24v-13l-2-30-1-10-6 3h-18l-5-3-4-5-2-9 4-5 5-5 4-8 4-1h9l-5-16-10-23-11-21-9-14-7-10-7-9-9-10-7-8-15-14-14-11-17-12-19-11-26-13-2-8 6-12 8-13 9-16 13-6 29-11 8-4 21-1-2-6-10-9-3-3v7l-3 5-6 3-10-1-12-7-5-1-9-1-4-6v-2l-10 1-4-2-1-7 1-10-4-10 2-9 7-6 16-6 6-4 6-18 5-5 10-18 10-11 11-7 10-4 16-7zm19 130-8 7-6 4v2h8l9-3-1-9zm70 172-3 8-4 21 4-1 7-8 8-9v-2l-8-7z" fill="#C8D2D9"/>
<path transform="translate(221,355)" d="m0 0h13l8 3 7 6 6 10 14 28 8 14 12 23 8 17 1 3v12l-4 9-7 8-10 6-24 12-3 3h-2l-2 4-4 9-1 7v10l3 21 5 21 8 23 9 21 7 13 7 10 8 12h1l4-20 8-20 2-13v-41l2-18 5-13 6-11 16-16 14-9 16-6h4l-1 3-8 7-5 5-6 7-6 12-2 12v11l1 2 6 1 1-17 4-13 8-10 9-8 12-6 7-2h17l4 3 2 4 12 3 11 12 6 7 3 7v27l-1 17 1 22-5 10-8 7h-2v-10l1-14-1-35-4-8-9-8-7-3h-10l-12 3-7 4-7 8-4 10-2 9-1 9v20l2 7 9 8 5 4 1 2v14l-3 3-21 6-15 6-37 7-3 3-4 7-1 3h2l9 14 11 12 9 7 10 6 6 2h8l14-5 15-7 10-4 11-2 10 2 6 3 7 8 8 16 11 24 9 16 7 12 10 21 1 5v14l-4 8-10 9-11 7-29 13-13 3h-28l-20-4-17-7-13-8-19-13-2-1-4-7-12-10-8-6-9-10-8-8-7-8-9-10-3-5-8-9-13-19-11-17-11-19-13-24-6-15-5-12-8-17-10-27-8-25-7-28-5-28-2-20v-41l3-21 5-16 7-13 11-13 7-8 10-9 11-8 21-11z" fill="#ED5152"/>
<path transform="translate(1617,68)" d="m0 0h27l26 3 23 5 21 6 20 8 16 8 12 7 17 14 10 9 11 11 10 13 9 14 10 19 6 20 3 17 1 11v28l-3 25-8 32-8 23-9 19-12 19-12 14-9 9-20 13-17 8-19 6-22 4-34 3 3 8-1 5-14 15-3 3-27-5 8-23 4-4 2-1-10-2-29-5-5-1-2 12-12 49-6 24-4 8-5 4-8 4-4 1h-10l-36-7-8-4-7-8-4-10 1-12 17-71 14-55 4-9 5-5 8-4h12l44 10 35 5 15 1h16l18-2 18-5 12-6 11-9 11-14 9-17 8-22 4-18 1-6v-27l-3-15-5-12-6-11-8-10-10-9-16-8-13-6-14-5-26-5-18-1-17 2-15 4-17 9-16 12-9 13-12 25-5 5-8 5-4 1h-9l-37-9-10-6-6-9-2-5v-12l5-13 12-24 11-16 11-13 11-11 11-9 8-6 16-9 20-8 23-6z" fill="#FCB03F"/>
<path transform="translate(905,408)" d="m0 0h26l6 15 16 44 14 38 12 30 11 30-1 8-10 40-2 4-11 7-21 14-12 6-16 11-11 9-21 14-1 2 6 16 3 9-8 7-10 9-15 15-2-1-16-61-10-35-8-27-1-6h-42l-11 23-6 11-3 6-3 72-3 75-3 25-7 37-9 39-11 46 15 1-1 2-15 5-15 8-10 7-22 12h-5l-2-4-2-17v-36l1-36 2-33 6-44 8-45 7-30 1-3-21 10-10 6-16-15-17-16-9-8-1-2v-25l6-145 2-8-9-14-4-7 1-6 14-27 3-4 6 2 13 7v10l-1 20 9 9-1 9-2 8 10 3 1 1 3 30 3 31 6 45 2 13v8l6-4 10-9 12-9 9-6 28-24 9-8 11-5 13-3 9-1v-2l-17-17-6-12-3-9-2-9-5-6-1 2-1 7-5 5-3 1h-12l-7-6-6-11v-12l7-11-2-9-1-4v-10l4-7 10-8 4-5 4-10 8-7 16-11 12-5 9-2h16l15 4 11 6 10 9 7 8 8 13 5 12 3 13 1 8 7 8 4 6v17l-7 10-5 4-11 1-3 10-7 9-10 7-9 3-7 1-4 6-1 6 18 6 10-3 27-11 42-17 11-5 3-1-1-11-9-45-5-35-11-56 1-5h5z" fill="#FCB03F"/>
<path transform="translate(1534,746)" d="m0 0h24l75 2 48 2 37 1 9 1 1 3-1 35-7 218-2 51-2 2-34-1-153-5-5-1v-65l4-123 3-93 1-20z" fill="#FCFCFC"/>
<path transform="translate(1812,957)" d="m0 0h7l3 18 1 8v30l-5 26-11 43-9 31-3 11-1 13v44l-1 1h-13v9l6 11 11 17 6 14 10 29 17 49 4 10 2 10 5 11 5 8 3 4 1 8-1 4h-2l-1 5-6 12-10 14-11 11-9 4h-11l-6-3-4-5-1-3v-9l4-10 3-7 5-5 6-8 7-6-1-5-8-14-13-21-12-22-11-21-6-14-13-23-8-14-9-15-5-10-1-14h-15l-3 15-1 10-1 37-6 61-4 38v14l3 1 2 8-1 6-6 8-13 14-9 7-5 3h-3v2l-3 1h-12v-2l-5-2-6-7v-9l9-11 8-8h2l1-4 8-6h2l1-3v-15l-4-54-5-71-2-28v-6h-14l-2-6-5-41-1-21 2-4 65 2h30l4-116 1-23 1-5 6-2 43-6z" fill="#C8D2D8"/>
<path transform="translate(784,934)" d="m0 0h9l1 13 6 29 7 25 4 10v22l-6 58-3 18-7 34-4 27-9 43-9 39-12 59-8 33-1 15-19 10-13 5h-5l-12-12 1-5 10-11 4-5v-20l-10-175-7-119-2-36v-29l15-10 15-7 10-3 1-1 33-5z" fill="#36455C"/>
<path transform="translate(1624,462)" d="m0 0 9 1 18 3 8 3-10 39-6 28-15 56-9 34 1 4 11 9 8 6 8 8 7 8 5-1 7-3-2-4-5-12 1-4 8 8 12 7 6 3 1 3 1 26 1 47-39-2h-27l3-2-14-12-16-13-10-8-16-13-10-8-3-3-5-28-8 6-11 7-9 4-9 2h-11l-14-3-16-8-13-12-5-8-5-13-1-7v-9l3-14 5-12 10-13 11-8 8-4 10-3 15-1 14 3 14 7 12 11 7 11 5 11 5-12 19-40 8-16 14-29 13-29z" fill="#404BB7"/>
<path transform="translate(1281,446)" d="m0 0 12 1 14 4 34 17 10 9 4 9 4 17 3 6 5 4 11 4 19 5 4 2 3 11-1 11v13l-9 4-8 7-8 16-5 17-27-1-21-2-10-4-9-6-8 1-5 2v2h-2l-1 6-5 9-8 13-9 12-5 2h-6l-4-2-11-18-9-15-2-4v-4l21-1-2-6-10-9-3-3v7l-3 5-6 3-10-1-12-7-5-1-9-1-4-6v-2l-10 1-4-2-1-7 1-10-4-10 2-9 7-6 16-6 6-4 6-18 5-5 10-18 10-11 11-7 10-4 16-7zm19 130-8 7-6 4v2h8l9-3-1-9z" fill="#6C6592"/>
<path transform="translate(1328,894)" d="m0 0h1l1 13h27l2 20 3 59v23l-10 46-9 39-11 47-4 21-5 92-1 18v23l-2 10-1 1h-16l-4 27v18l-2 13-3 11-4 8-6 5-2 1h-7l-5-4-3-4-1-4v-14l4-18 3-9 1-2 1-15v-14l-9-1-1-2-2-63-4-111v-33l7-8 12-17 7-13 8-13 3-7 5-8 3-7 4-9 10-28 5-20 3-19 2-24z" fill="#7CBFC5"/>
<path transform="translate(1519,725)" d="m0 0h23l69 2 18 1h21l37 2 4 1h27l21 1 5 2 1 8-1 66-2 37-2 62-5 6-8 7v15l2 7 9 2v24l-1 7-3 84-1 38-1 13-2 1h-25l-34-1-64-1-98-3-3-1v-27l9-271 3-81zm15 21-2 7-2 53-6 183v65l5 1 61 2 116 4h10l2-2 3-83 6-186 1-35-1-3-9-1-62-2-57-2-41-1zm61 332-1 4v12l2 1 23 1h26l1-15-1-1-40-2z" fill="#37465C"/>
<path transform="translate(1635,69)" d="m0 0h21l24 4 21 5 24 8 24 11 16 10 9 8 11 9 15 15 10 13 9 14 10 19 6 20 3 17 1 11v28l-3 25-8 32-8 23-9 19-12 19-12 14-9 9-20 13-17 8-19 6-22 4-8 1h-12l2-4 13-5 11-5 16-8 9-6h2l2-4 6-5 9-12 2-1 5-9 6-10 5-12 9-22 3-10 4-14 4-22 3-28-1-26-2-16-4-19-6-14-3-6v-3h-2l-5-10-5-8-2-5h-2l-7-10-4-4v-2l-4-2-1-2-5-3-2-4-4-2-6-4v-2l-5-2-4-2v-2l-4-1v-2l-5-2-9-5-4-1v-2l-4-1-24-10-12-3-14-5-5-2-2-4z" fill="#E5A03A"/>
<path transform="translate(814,1022)" d="m0 0 3 3 3 7 12 21 7 11 11 14 12 14 7 7 2 1v2l4 2 10 9 11 9 10 7 7 5-1 17-5 63-5 60-1 18-3 31-1 18 11 9 5 6-1 7-13 13-4-1-8-4-15-7-9-6-1-17-8-49-6-45-12-80-11-73-9-54-2-11z" fill="#37465C"/>
<path transform="translate(404,1102)" d="m0 0h1l-1 23-6 75-7 86-3 34-5 63-1 8h-2v7l-4 4-14 4-5 1v2l-5 2h-5l-7-7-4-6 1-5 10-9 4-5v-15l-3-34-1-18-3-17-1-1-4-45-11-110-3-21-2-12 7-1 44-1z" fill="#C9D2D9"/>
<path transform="translate(1232,1119)" d="m0 0h1l-1 13v38l2 128-2 1h-14v29l1 3v24l-4 17-6 10-6 4-7 1-7-4-4-5-1-3v-11l2-14 3-9v-10l-3-28-1-5-9-2-2-6-4-31-11-70-1-8v-16l1-3 30-15h2l1-3 7-3 5-3h2l1-3 8-4 2-3 11-6h4z" fill="#7EBFC4"/>
<path transform="translate(362,493)" d="m0 0h4l-1 3-8 7-5 5-6 7-6 12-2 12v11l1 2 6 1 1-17 4-13 8-10 9-8 12-6 7-2h17l4 3 2 4 12 3 11 12 6 7 3 7v27l-1 17 1 22-5 10-8 7h-2v-10l1-14-1-35-4-8-9-8-7-3h-10l-12 3-7 4-7 8-4 10-2 9-1 9v20l2 7 9 8 5 4 1 2v14l-3 3-21 6-15 6-37 7-3 3-4 7-4-1-3-4v-10l4-16 7-17 2-13v-41l2-18 5-13 6-11 16-16 14-9z" fill="#37455C"/>
<path transform="translate(791,435)" d="m0 0h16l15 4 11 6 10 9 7 8 8 13 5 12 3 13 1 8 7 8 4 6v17l-7 10-5 4-14 1-2-1v2l-9 6-5-1-3-7v-28l-3-5-11-4h-12l-15 3-10 3-19 5-1 5 1 10h-4l-5-4v7l-6 7-3 1h-12l-7-6-6-11v-12l7-11-2-9-1-4v-10l4-7 10-8 4-5 4-10 8-7 16-11 12-5z" fill="#36455B"/>
<path transform="translate(471,1099)" d="m0 0 2 1 2 3 3 39 6 93 4 61v22l1 2 2 25 2 6 6 1v2l5 2 10 8-1 6-7 10-2 3-7-1-23-7-5-5-5-25-6-31v-3h-2l-8-40-12-56-8-38-5-33-7-36v-6l1-1 17-1z" fill="#CAD3DA"/>
<path transform="translate(1733,1182)" d="m0 0h36l7 1 10 19 11 17 6 14 10 29 17 49 4 10 2 10 5 11 5 8 3 4 1 8-1 4h-2l-1 5-6 12-10 14-11 11-9 4h-11l-6-3-4-5-1-3v-9l4-10 3-7 5-5 6-8 7-6-1-5-8-14-13-21-12-22-11-21-6-14-13-23-8-14-9-15-5-10-1-9 3-5z" fill="#F8BEA1"/>
<path transform="translate(1505,546)" d="m0 0 14 1 14 5 11 7 8 8 7 11 6 13v23l-5 15-6 10-2 3-8 6-11 7-9 4-9 2h-11l-14-3-16-8-13-12-5-8-5-13-1-7v-9l3-14 5-12 10-13 11-8 8-4 10-3z" fill="#FCB03F"/>
<path transform="translate(385,487)" d="m0 0h23l14 5 10 8 10 10 8 14 3 9 1 13v6l8 4 8 11 1 10-1 9-7 9-5 4 2 10 6 12 2 3v5l-9 3-13 2-24-3-29 6-11 1v-2h-2l-1-14-5-5-10-9-2-7v-20l2-15 4-11 4-6 9-8 9-3 6-1h10l10 5 8 8 3 7 1 35-2 24 10-8 4-9-1-29 1-10v-27l-5-10-12-12-2-3-12-3-4-6-2-1h-17l-12 4-11 7-7 7-6 9-3 11-1 17-4 1-4-2-1-2v-11l2-12 6-12 9-11 8-7 3-2 1-3z" fill="#D27A72"/>
<path transform="translate(1672,1182)" d="m0 0h33l4 1 1 5-2 10-1 10-1 37-6 61-4 38v14l3 1 2 8-1 6-6 8-13 14-9 7-5 3h-3v2l-3 1h-12v-2l-5-2-6-7v-9l9-11 8-8h2l1-4 8-6h2l1-3v-15l-4-54-5-71-2-32h3l1-1z" fill="#F7BDA1"/>
<path transform="translate(1263,466)" d="m0 0h14l10 3 11 6 9 9 6 10 4 14v16l-2 8v22l1 7 1 5-7 11-4 3h-2l-1-2v-21l1-7v-12l-3-9-8-6-24-13-2-1h-8l-10 6-12 10-5 10-1 4v9l4 23 2 7-1 7-5 4-9 1-8-3-8-5-5-1-9-1-4-6v-2l-10 1-4-2-1-7 1-10-4-10 2-9 7-6 16-6 6-4 6-18 5-5h1v23l7 2 1-15 4-14 6-10 4-4 14-6 4-3z" fill="#37455C"/>
<path transform="translate(1041,672)" d="m0 0h11l10 1h10l15 2 7 3 1 5-7 1-24 3-22 6-24 8-10 4-11 5-26 13-15 9-8 6-7 4-8 6h-2v2l-9 6-11 9-1 2h-2l-2 4-3 1-2 4-11 11-1 2h-2l-2 4-4 6-5 5-4 5-1 3h-2l-2 5-8 14-3 4h-2l-1 5-6 11-6 9-2 2h-3l-1-5 2-16 1-1 2-10 6-18 5-11 4-8 3-7 6-10 3-6 7-9 8-9h2l2-4 4-5 11-11h2l1-3h2v-2l8-7 3-3h2v-2l10-7 14-9 20-9 13-5 19-6 17-4 17-2z" fill="#6670A7"/>
<path transform="translate(1675,571)" d="m0 0 5 1 13 5 28 6 10 5 6 7 5 16v5h2v26h-1l-1-11-8 9-6 4 1 5 1 1 11 1 3 3v3l-12 22-13 23-8 16-6 11-1 1h-12l-3-3-1-44v-28l3-1 5 2h18l2-7-1-3-2-1-22-1-10-3-5-5-5-8-5-14v-24l2-9z" fill="#F8BDA1"/>
<path transform="translate(1281,446)" d="m0 0 12 1 14 4 34 17 10 9 4 9 4 17 3 6 5 4 11 4 19 5 4 2 3 11-1 11v13l-9 4-8 7-8 16-5 17-27-1-14-1-13-5-8-5 2-4 7-10 4-10 2-2 9-3 9-6 2-10-1-12-1-3-14-9-2-21-5-13-7-12-8-9-13-8-17-5-8-1 2-5z" fill="#37455C"/>
<path transform="translate(1710,523)" d="m0 0h11l14 3 10 6 9 9 6 12 2 7 1 9v13l-2 8v28l1 3 10 5v4l-8 8-13 4h-7v-26h-2l-5-19-4-6-5-4-10-4-29-6-10-5-5 1-4 4-3 4h-3v-14l2-9 4-7 3-9 5-6 10-8 11-4z" fill="#36455C"/>
<path transform="translate(314,655)" d="m0 0 4 1-8 2 3 2-2 6-2 1v9l4 2 10 2 2 1v2l3 1 2 6 1 5 5 3 8 4 7 1h10l10-2 19-10 8-3 14 2 4 2 13 13 4 7 10 21 5 12 5 9 5 12 5 5 5 16 4 9 2 18-1 6-1 3h-2l-2 5-3 3h-2v2h-2v2h-2l-2 4-6 5-12 6-7 1-7 5-8 2-25 3-11 8-3 2-8 2-1 3v7l1 8-3 6-3 2-19 3-10-3-8-5-6-3-12-18-1-14-1-5 2-8-1-6 4-8-5-1-8-5h-3v-2l-4-1v-2h-2l-1-5 8 6 3 2h3l1-2 5 2 16 11 13 8 17 7 20 4h28l16-4 30-14 14-11 4-5 2-5v-14l-3-10-8-16-20-36-12-27-6-9-6-5-5-2-10-1-15 4-15 7-11 5-7 2h-8l-10-4-10-7-13-12-6-8-6-9v-2h-2l-1-3 4-4 3-6z" fill="#5FB8A9"/>
<path transform="translate(1707,511)" d="m0 0h13l14 3 17 8 10 9 6 7 8 15 5 17 3 15 5 10 1 4v9l-7 14-9 6-4-3-7-4-2-3v-28l2-11v-10l-2-13-4-10-6-8-9-8-9-4-11-2h-11l-15 2-8 4-7 6h-2l-2 4-3 3-3 10-4 8-2 20 4-2 4-6v3l-4 8-1 6v24l6 16 5 7v2l6 2 7 2 22 1 4 4-1 7-2 2h-20l-5-2v28l1 46h14l9-17 8-16 2-1-2 6-11 23-6 8h-13l-3-3-1-45-1-26-1-3-12-6-8-6-5-5-2 1-4-12-8-2-7-12-1-3v-12l4-10 7-11 2-5 2-13 4-13 6-11 6-8 9-6 15-7z" fill="#6C6592"/>
<path transform="translate(791,435)" d="m0 0h16l15 4 11 6 10 9 7 8 8 13 5 12 3 13 1 8 7 8 4 6v17l-7 10-5 4-14 1-2-1v2l-9 6-5-1-3-7v-28l-1-3 3 1 1 5v15l-1 1-1 8h2v3h2l1 2 6-2 2-3-1-8v-25l1-5v-26l-5-14-7-9-7-7-14-7-8-2h-15l-15 5-9 6-8 9-6 12-2 9-1 18 3 11v15l1 4v7l-6 7-3 1h-12l-7-6-6-11v-12l7-11-2-9-1-4v-10l4-7 10-8 4-5 4-10 8-7 16-11 12-5z" fill="#6C6592"/>
<path transform="translate(807,515)" d="m0 0h12l11 4 4 6v28l3 7 5-1 6-4h2v-2l4 1-1 7-4 7-4 5-10 7-9 3-7 1-4 6-1 7-7 3-7 1-9-5-3-3v-2l-17-17-6-12-3-9-2-10 2-1-1-14 2-2 27-7 11-3z" fill="#F7BC9F"/>
<path transform="translate(1259,508)" d="m0 0h8l19 10 10 6 6 5 3 9v12l-3 26-10 8-6 4-14 1-3 3v5l-16-4-3-6-10-9-3-3h-2l-4-19-1-8v-9l4-11 6-7 13-10z" fill="#D37971"/>
<path transform="translate(385,487)" d="m0 0h23l14 5 10 8 10 10 8 14 3 9 1 13v6l8 4 8 11 1 10-1 9-7 9-5 4 2 10 6 12 2 3v5l-9 3-13 2-24-3-14 3-5-1-6-3-2-3 1-5 1-1h21l4-3h2l2-4v2l10-8 4-9-1-29 1-10v-27l-5-10-12-12-2-3-12-3-4-6-2-1h-17l-12 4-11 7-7 7-6 9-3 11-1 17-4 1-4-2-1-2v-11l2-12 6-12 9-11 8-7 3-2 1-3z" fill="#6C6592"/>
<path transform="translate(1305,1133)" d="m0 0h2v2h2v8l-1 10-3 3 3 4 2-5 7 1 1-6 3-4 5 1 1 5-2 5-1 13-1 8 1 14-3 6-1 13-2 9 2 7v42l-4 9-4 4v-6l-4-2 1-3v-8l-3-3-9 1h-3l-2 4-5 2v5l5-2 2-4 5-1v-2h3v6l-3 5 1 7h2v7l5 11 2 4-3 1-18-1-1-1-11 1-4-2-1-6v-11h-2v-20l2-3 1 1 2-6 5-1v-4h2l1 3 5 2 6-1v-6l5-3 3-6v-6l2-4-9 1-1-5 3-3 3-1v-3l-2-1-2-4h-2v-6l4-2 1-5-4-4-1-3 6-2 1-2 4-1 1-4h-5l1-9 2-3-2-1-2-2-2-10-2-6 4-1 1-2h2l-2-7 1-5 3-2z" fill="#6AC3C1"/>
<path transform="translate(1224,1188)" d="m0 0 2 1 2 17 1 38 1 26 1 2v11l1 1v7l-3 6h-11l-14-2h-9l-9-4v-14l-3 1-1-4v-7l2-5v-8l5-1 5 1 5-2 1-4 6-4-1-7 8-4 1-9-6 2-5-1-1-8 6-1 3-1 1-6 4-9 3-4 3-7z" fill="#6AC3C1"/>
<path transform="translate(1726,644)" d="m0 0 4 6 11 1 3 3v3l-12 22-13 23-8 16-6 11-1 1h-12l-3-3-1-44v-28l3-1 5 2h18l2-7 1 2 8-3z" fill="#C3D0D7"/>
<path transform="translate(1528,558)" d="m0 0 6 1 6 4 8 3 10 10 7 15v23l-5 15-6 10-2 3-8 6-11 7-9 4h-8l-11 1-4-3v-3l9-4 3-1 1-3 7-4 6-8 6-11 4-13 1-7v-20l-5-13-2-6-2-1z" fill="#E5A03A"/>
<path transform="translate(1187,1298)" d="m0 0h29l1 31 2 4v22l-4 17-6 10-6 4-7 1-7-4-4-5-1-3v-11l2-14 3-9h2l-2-23z" fill="#D27971"/>
<path transform="translate(1298,1035)" d="m0 0 1 2-1 6 4-5 4-3 3 1 1 6-6 5-1 9-12 18-3 6-7 8-5 5-1 18h4l1 5v8l-1 3v9l-1 12 2 3v9l-2 4-2 8 3 14-1 7-5 5-2-3-4-23-1-3h-3l-1-7-1-1-1-8-1-25v-33l7-8 12-17 7-13 8-13 3-7z" fill="#6AC3C1"/>
<path transform="translate(1672,573)" d="m0 0v3l-4 8-1 6v24l6 16 5 7v2l6 2 7 2 22 1 4 4-1 7-2 2h-20l-5-2v28l1 46h14l9-17 8-16 2-1-2 6-11 23-6 8h-13l-3-3-1-45-1-26-1-3-12-6-8-6-5-5-2 1-4-12-8-2-7-12-1-3v-12l4-10 4-6 4-1 3 1h8l3-4v3l4-2z" fill="#6C6693"/>
<path transform="translate(791,435)" d="m0 0h16l15 4 11 6 10 9 7 8 8 13 2 5v13l-1 13-1 1h-6l-2-6-2-17-5-12-6-8-10-9-12-6-13-3h-9l-13 4-15 9-4 5-4 4-5 11-3 10-1 18-1 1h-9v-18l2-16 4-10 3-5 7-6 16-11 12-5z" fill="#C9B4B0"/>
<path transform="translate(1278,1304)" d="m0 0 22 1 1 4-3 19v26l-2 15-4 11-6 7-4 2h-7l-5-4-3-4-1-4v-14l4-18 5-10 1-5 1-25z" fill="#3A4860"/>
<path transform="translate(1319,565)" d="m0 0h1l-1 8-3 6h-2l-2 4-3 4v5l-3-2-8 1-5 2v2h-2l-1 6-5 9-8 13-9 12-5 2h-6l-4-2-11-18-9-15-2-4v-4l19-1 3-1 14 4 2 1-1-5 4-4h22l9-2 1-3 5-1 7-10z" fill="#7BBFC4"/>
<path transform="translate(385,487)" d="m0 0h23l14 5 10 8 10 10 8 14 3 9 1 13v7l-10 1-2-21-4-9-13-13-7-4-9-2-4-6-2-1h-17l-12 4-11 7-7 7-6 9-3 11-1 17-4 1-4-2-1-2v-11l2-12 6-12 9-11 8-7 3-2 1-3z" fill="#CAB6B2"/>
<path transform="translate(632,466)" d="m0 0 6 2 13 7v10l-1 20 9 9-1 9-2 7-17-1-12-2-1-5-7-10-5-9 1-6 14-27z" fill="#F8BEA2"/>
<path transform="translate(1707,511)" d="m0 0h13l14 3 17 8 10 9 6 7 2 5-1 4 2 7 1 8v17l-4 1-2-2-1-13-4-15-6-10-8-9-12-7-6-2-17-1-16 2-10 5-10 9-4 5-2 9-4 6-1 5-1 15-1 3-7-1-2-4-3-1 1-2 2-13 4-13 6-11 6-8 9-6 15-7z" fill="#CAB6B2"/>
<path transform="translate(1260,453)" d="m0 0h2v2h16l12 3 11 6 9 7 8 10 7 14 2 13v10l-3 3-5 1-1-1-2-20-5-12-7-10-7-6-12-6-8-2h-12l-9 1-5 3h-2l-2 5-13 6-6 8-5 13-2 18-1 2h-6l-2-2v-16l2-10 8-15 10-11 11-7 10-4z" fill="#CAB4AF"/>
<path transform="translate(1844,1353)" d="m0 0 4 4v9l-5 11-7 12-8 10-9 9-9 4h-11l-6-3-4-5-1-3v-9l4-10 3-7 13-13 5-2-2 9-1 10h8l11-4 6-4 6-9z" fill="#3A475F"/>
<path transform="translate(294,670)" d="m0 0 4 1 9 14 11 12 9 7 10 6 6 2h8l14-5 15-7 10-4 11-2 10 2 6 3 7 8 8 16 11 24 9 16 7 12 10 21 1 5v14l-4 8-10 9-11 7-29 13-13 3h-28l-20-4-17-7-13-8-19-13-2-1-2-5 4 2 10 7 17 11 13 6 15 5 11 2h34l15-5 22-10 14-9 6-8 2-4 1-10-3-12-12-22-9-17-6-10-8-18-5-11-3-6-1-3-4-2-6-2-6-1-15 2-17 8-12 6-6 2h-9l-12-5-13-10-12-11-12-18z" fill="#D27B73"/>
<path transform="translate(1753,885)" d="m0 0 5 3 15 15 1 4-10 28-8 3-21 6-7-2-2-7v-15l7-7 9-7 4-5 6-15z" fill="#F6BB9F"/>
<path transform="translate(386,497)" d="m0 0h17l4 3-1 2-3-2h-14l-13 4-10 6-8 8-6 9-2 7-1 10v14l2 10v18l-2 7-3 3-3 1h-8l-12-6-4-5-1-3v-13l3-6 11-9 2-1 1-16 4-16 8-12 5-6 2 1-8 10-6 12-2 12v11l1 2 6 1 1-17 4-13 8-10 9-8 12-6z" fill="#6C6592"/>
<path transform="translate(324,853)" d="m0 0h8l19 8 4 3v8l4 7 6 9-1 5-3 3h-15l-10-4-11-8-8-8-4-7 1-7 5-6z" fill="#D27B73"/>
<path transform="translate(1240,476)" d="m0 0 3 1-9 7-6 10-4 12v21l2 6v25l-2 4-7 3h-9l-7-4-6-6-1-3v-17l3-5 5-6 5-1 2-10 2-13 2-4v23l7 2 1-15 4-14 6-10 4-4z" fill="#6C6592"/>
<path transform="translate(1696,1361)" d="m0 0 3 1 2 5-1 6-6 8-13 14-9 7-5 3h-3v2l-3 1h-12v-2l-5-2-6-7v-9l9-11 8-8h2v-2l5-3-1 5v10l4 4 2 1h8l4-3h2l2-4 10-11z" fill="#3C4962"/>
<path transform="translate(736,500)" d="m0 0h1l1 9 1 1h8l1-2h2l3 11v15l1 4v7l-6 7-3 1h-12l-7-6-6-11v-12l7-11v-4h9z" fill="#6C6592"/>
<path transform="translate(1324,1192)" d="m0 0h1v22l-3 58v23l-2 10-1 1h-16l-4 27v18h-1l-1-7v-16l3-22-15-1v-1l22-1v-3l-3-5-3-8 1-6h-2l-2-7 3-5 1-6h-3v2l-5 1-1 4-2 2h-4l-1-5 4-2 6-5h7l3-1 4 4v8 4l2 1 1 5 4-9 2-3v-42l-2-7 2-9 1-13 3-5z" fill="#7DBFC5"/>
<path transform="translate(1316,834)" d="m0 0 4 5 11 15v5l-5 6-1 4-6 3h-18l-5-3-4-5-2-9 4-5 5-5 4-8 4-1h9z" fill="#D37870"/>
<path transform="translate(1215,1334)" d="m0 0h3l1 4v17l-4 17-6 10-6 4-7 1-7-4-3-4-1-5v-9l3-17 3-1 4 8 2 1h6l4-4 6-12z" fill="#38465D"/>
<path transform="translate(1639,433)" d="m0 0 1 2 5-1 12 1h8l3 5 1 8-15 16-3 3-27-5 8-23 4-4z" fill="#F6BDA1"/>
<path transform="translate(1232,1119)" d="m0 0h1l-1 7-4 9-4 10-3 1h-6l-6 4-7 4-11 6-9 4-7 3-3 2-6 5h-6l-1 2-1-3v-8l1-3 30-15h2l1-3 7-3 5-3h2l1-3 8-4 2-3 11-6h4z" fill="#6AC3C0"/>
<path transform="translate(1665,71)" d="m0 0 10 1 22 5 22 7 15 6 16 8 12 7 17 14 10 9 11 11 10 13 9 14 8 15-1 2-5-5v-2l-4-2-1-1v-5l-3-1-4-7v-3h-2l-1-4-3-1-4-6-6-5-2-1v-2l-3-1-4-4v-2l-5-2-5-4-5-5-6-5v-3l-10-5-4-3-5-1-5-4-11-4-4-1-5-3-10-2-5-4-10-4-8-1-10-5-10-2z" fill="#FCB041"/>
<path transform="translate(488,1353)" d="m0 0h11l13 9 2 2-1 6-7 10-2 3-7-1-23-7-5-5-2-11 5-3z" fill="#3B4962"/>
<path transform="translate(1278,1304)" d="m0 0 22 1 1 4-3 19-1 15-6 7-4 2h-7l-5-8-1-7 2-7 1-25z" fill="#D27B73"/>
<path transform="translate(379,1379)" d="m0 0 2 1v11l-1 7-4 4-14 4-5 1v2l-5 2h-5l-7-7-4-6 1-5 11-10 2-1z" fill="#3E4A64"/>
<path transform="translate(550,555)" d="m0 0 4 1 5 6-1 5-6 10-8 15-5 8-1 3-13-1-4-2-2-13v-9l4-1 4 3v2h3l2-6 7-13 9-6z" fill="#D37E75"/>
<path transform="translate(1533,744)" d="m0 0h36l91 3 41 2 26 1 2 2v44l-4 100-1 18h-1v-28l4-122v-12l-46-1-48-2-75-2h-24l-1 6-2 53-3 88h-1v-38l2-66 1-31 1-12z" fill="#686A9D"/>
<path transform="translate(793,445)" d="m0 0h9l16 4 10 6 10 9 4 5 6 12 1 8-2-1-5-14-7-9-7-7-14-7-8-2h-15l-15 5-9 6-8 9-6 12-2 9-1 17-3 4h-8l-3-2h-9l-3-9v-10l4-7 10-8 3-1-2 16-1 18 9-1 1-18 5-15 6-10h2l2-4 10-7 12-6z" fill="#686A9D"/>
<path transform="translate(450,598)" d="m0 0h6l7 18 5 8v5l-9 3h-21l-11-3 1-3 9-6 7-8z" fill="#37465C"/>
<path transform="translate(246,763)" d="m0 0 4 2 22 24 4 4v2l3 1-3 1-8-2-3 2-3-1v2l-10-1-5-5-1-8-3-2-6 1-2 4-3-1 11-20z" fill="#60BAA9"/>
<path transform="translate(443,597)" d="m0 0h5l-1 8-2 7-9 10-8 5-1 2 8 1 3 1 15 1v1l-7 1-24-3-14 3-5-1-6-3-2-3 1-5 1-1h21l4-3h2l2-4v2l10-8 1-2h2l2-6z" fill="#676EA4"/>
<path transform="translate(1534,746)" d="m0 0h24l75 2 48 2 37 1 9 1 1 3-1 35-4 124h-1v-36l2-81 1-24v-18l-3-1-18-1-52-1-105-4-13-1z" fill="#C4C5C7"/>
<path transform="translate(1721,918)" d="m0 0h1v27l-3 92-1 22-2 2-34-1-153-5-5-1v-65h1v64l76 2 55 1 44 2h15l1-3z" fill="#CABDBD"/>
<path transform="translate(1711,520)" d="m0 0 17 1 12 5 9 7 7 8 6 12 3 12 1 13 4 1v-17l-3-18 3-1 2 8 1 12v16l-3 3-5-1-1-1-1-10-1-1-2-13-4-10-6-8-9-8-9-4-11-2h-11l-15 2-8 4-7 6h-2l-2 4-3 3-3 10-4 8-2 17-3 5h-10l-4-3 3-5h3l4 4 5 1 1-18 2-7 3-4 2-9 9-10 8-6 8-4z" fill="#686B9F"/>
<path transform="translate(1660,626)" d="m0 0 4 4 3 5v2h2l3 3 11 5-1-4 9 2 22 1 4 4-1 7-2 2h-20l-5-2-8-5-9-6-9-8-3-4z" fill="#C7B4B0"/>
<path transform="translate(1722,914)" d="m0 0h1v39l-3 94-1 13-2 2h-40l-30-1-34-2-88-3-1-2 66 2 116 4h10l1-1 3-83z" fill="#686B9D"/>
<path transform="translate(1269,449)" d="m0 0 3 1-2 3h8l17 5 14 9 9 10 8 15 2 6 1 11v11l-1 3-5 2-5-1-1-1-1-15-4-14-7-11-7-7-16-8-5-1h-14l-12 4-3 2 1-4 7-4 9-1h12l13 4 11 7 8 9 7 14 2 9 1 14 7-1v-12l-3-16-8-14-8-9-13-8-7-3-9-2-16-1v-3z" fill="#686B9F"/>
<path transform="translate(1740,966)" d="m0 0h5l-4 2h-2l-4 117-1 22-1 5-2 1h-28l-63-2-9-1v-1h40l34 1h27l1-51 3-84 1-7z" fill="#686B9F"/>
<path transform="translate(1659,623)" d="m0 0 4 1 6 11 5 3-4-9 3 1 5 7v2l4 2 1 4-5-1-9-5v-2h-2l-6-10v5l7 8 11 8 9 5 2 76h14l9-17 8-16 2-1-2 6-11 23-6 8h-13l-3-3-1-45-1-26-1-3-12-6-8-6-5-5-2 1-2-5v-6z" fill="#686DA1"/>
<path transform="translate(1190,66)" d="m0 0 5 5 6 12 2 8 1 94v153h-1l-1-8v-113l-1-28v-75l-1-14-2-11v-5l-2-2-6-14z" fill="#6FC0B2"/>
<path transform="translate(850,553)" d="m0 0 4 1-1 7-4 7-4 5-10 7-9 3h-6l-1-5-2-3 10 1 2-6 6-7 2-3 5-1 6-4h2z" fill="#CAB9B5"/>
<path transform="translate(745,403)" d="m0 0h114l6 1 17 1v1h-186v-1l41-1z" fill="#5FBEA9"/>
<path transform="translate(737,476)" d="m0 0h2l-3 33h-9l-3-9v-10l4-7z" fill="#39475E"/>
<path transform="translate(386,497)" d="m0 0h17l4 3-1 2-3-2h-14l-13 4-10 6-8 8-6 9-2 7h-2v9l-1 11-2 2h-6l-3-3v-21l3-10 8-12 5-6 2 1-8 10-6 12-2 12v11l1 2 6 1 1-17 4-13 8-10 9-8 12-6z" fill="#686B9E"/>
<path transform="translate(1324,1192)" d="m0 0h1v22l-3 58-2-3-1-25v-17l-2-7 2-9 1-13 3-5z" fill="#83C1C7"/>
<path transform="translate(435,1096)" d="m0 0h50l7 1v1l-21 2-37 1-19 1h-9l-2 1h-15l1-2 23-2 1-1z" fill="#60BEA9"/>
<path transform="translate(910,401)" d="m0 0h13l9 1 6 2 51 1v1h-59v2l-26 1-2-2-19-1v-1l16-1 4-2z" fill="#7ABFB5"/>
<path transform="translate(1331,910)" d="m0 0 4 1v15l-1 5h2l1 4 3 3-2 10-5-1 2-3v-3l-5 5h-2l-1 6h-1l1-16 2-25z" fill="#6AC3C1"/>
<path transform="translate(538,600)" d="m0 0 1 3 5 2 1 6v56l-2 32h-1v-33l-1-57h-2l-1-4-11-2v-1h7l4 1z" fill="#6CBFB1"/>
<path transform="translate(1728,763)" d="m0 0h1v33l-4 100-1 18h-1v-28l4-122z" fill="#686A9D"/>
<path transform="translate(1695,522)" d="m0 0m9 0h18l6 1v1h-18l-15 2-8 4-7 6h-2l-2 4-3 3-3 10-4 8-2 17-3 5h-10l-4-3 3-5h3l4 4 5 1 1-18 2-7 3-4 2-9 9-10 8-6 5-3z" fill="#69699A"/>
<path transform="translate(727,513)" d="m0 0 2 3 1 13v21l-5-5-5-9v-12z" fill="#6871A6"/>
<path transform="translate(397,621)" d="m0 0h12l3 1 6 8-2 2-11 2-8-4-2-3 1-5z" fill="#6B6694"/>
<path transform="translate(802,576)" d="m0 0h11l5 3v6l-2 2h-13l-5-1-2-6 2-3z" fill="#6670A7"/>
<path transform="translate(1659,637)" d="m0 0 7 6 9 6 10 5-1 3-5 1h-11v-3l-4-2-5-12z" fill="#38475E"/>
<path transform="translate(1272,588)" d="m0 0h14l4 2-1 5-4 4h-13l-3-2-1-5z" fill="#666FA5"/>
<path transform="translate(1643,589)" d="m0 0 2 1 2 6-1 19v8l-3-3-5-10v-12l3-8z" fill="#6A73A7"/>
<path transform="translate(1240,476)" d="m0 0 3 1-9 7-6 10-5 14-1 15-2 2-8-1-2-3v-17l2-8h1v23l7 2 1-15 4-14 6-10 4-4z" fill="#666FA5"/>
<path transform="translate(1811,1360)" d="m0 0h2l-2 9-1 10h8l11-4h3l-8 5h-5v2h-9l-3-2-1-10h-2l-3 3-7 10-3 7v15l-2-1-1-3v-9l4-10 3-7 13-13z" fill="#A77283"/>
<path transform="translate(1675,571)" d="m0 0 5 1 13 5 28 6-4 1-21-4-13-4-4-2-4 1-5 8-1 4v27l4 12 7 12-2 1-7-11-5-14v-24l2-9z" fill="#D27B73"/>
<path transform="translate(1780,575)" d="m0 0h1l2 10 5 10 1 4v9l-7 14-2 1 1-9v-27l-1-2z" fill="#6E75A7"/>
<path transform="translate(381,541)" d="m0 0 3 1-8 6-4 5-4 8-3 16v27l7 8 7 5 2 3 1 16h-2l-1-14-5-5-10-9-2-7v-20l2-15 4-11 4-6z" fill="#EE5152"/>
<path transform="translate(1705,646)" d="m0 0h6l4 4-1 5-2 1h-14l-4-4 1-5z" fill="#6670A7"/>
<path transform="translate(323,564)" d="m0 0h4l1 3v20l-5 1-3-4v-16z" fill="#6670A7"/>
<path transform="translate(1265,464)" d="m0 0h12l13 4 11 7 8 9 7 14 1 3v7h-1l-4-14-7-11-7-7-16-8-5-1h-14l-12 4-3 2 1-4 7-4z" fill="#686B9E"/>
<path transform="translate(1726,644)" d="m0 0 2 3 4 5-2 4-7 3h-23l-4-1v-2h18l2-7 1 2 8-3z" fill="#CABBB6"/>
<path transform="translate(412,632)" d="m0 0v3l-5 3-19 5h-9l-4-2h-5l4-2 5-3h3v2l26-5z" fill="#62B1A9"/>
<path transform="translate(1198,531)" d="m0 0h3l1 15-1 9-3 1-3-1-1-3v-17l1-3z" fill="#666EA4"/>
<path transform="translate(1687,659)" d="m0 0h1l1 24 1 46h14l9-17 8-16 2-1-2 6-11 23-6 8h-13l-3-3-1-45z" fill="#666FA5"/>
<path transform="translate(716,1301)" d="m0 0 2 4 1 16v20l-11 12-4 6 1 4 10 10 7-1 7-2-3 3-5 1v2l-7-1-14-14 1-5 5-6 5-3 6-8v-15z" fill="#BAB8C1"/>
<path transform="translate(1340,531)" d="m0 0 4 1 1 2v19l-3 3-3-1-1-3v-17z" fill="#6670A7"/>
<path transform="translate(1319,565)" d="m0 0h1l-1 8-3 6h-2l-2 4-3 4v5l-3-2-8 1-5 2v2h-2l-1 3-1-5 1-3-3-1 16-3 1-3 5-1 7-10z" fill="#C4B9B6"/>
<path transform="translate(1652,750)" d="m0 0h29l37 1 9 1 1 3v9l-1 5h-1l-1-14-3-1-18-1-52-1z" fill="#C6CCD0"/>
<path transform="translate(1733,1107)" d="m0 0h1v6l-2 1h-47l-27-1h-16l-5 1 1-4 65 2h30z" fill="#A0BCBD"/>
<path transform="translate(806,446)" d="m0 0 12 3 10 6 10 9 4 5 6 12 1 8-2-1-5-14-7-9-7-7-14-7-8-2-14-1v-1z" fill="#686C9F"/>
<path transform="translate(315,1102)" d="m0 0 74 1v1l-15 1-51 1-10-2z" fill="#6FBEB8"/>
<path transform="translate(1770,546)" d="m0 0 3 3 6 16 1 5v10l-4 1-2-1-1-20-3-11z" fill="#3C4962"/>
<path transform="translate(812,403)" d="m0 0h47l6 1 17 1v1h-72v-2z" fill="#6BBEB5"/>
<path transform="translate(1830,1316)" d="m0 0h2l2 6 2 9 5 11 5 8 3 4 1 8-2 4-1-9-2-3-5 12-6 7v-3l5-7 3-11-1-4-9-20z" fill="#CDA49F"/>
<path transform="translate(869,512)" d="m0 0 4 2 5 8v17l-5 7-1-2v-25z" fill="#6B72A6"/>
<path transform="translate(352,504)" d="m0 0 2 1-8 10-6 12-2 12v11l1 2 6 1 1-17 2-5 1 3-2 20-2 2h-6l-3-3v-21l3-10 8-12z" fill="#676DA2"/>
<path transform="translate(1319,562)" d="m0 0 3 3-1 9-4 9-5 6 1 3 16 7-4 1-10-4-6-4-1-5 6-8h2l3-9-1-7z" fill="#6670A7"/>
<path transform="translate(801,573)" d="m0 0h12l6 4 2 5-3 2-2-6-3-1h-11l-4 1-1 3 1 5 18 1-1 2h-12l-7-3-1-1v-8l3-3z" fill="#D17B73"/>
<path transform="translate(859,480)" d="m0 0 2 1 1 5v20l-3 5h-8l-2-2v-20h1l2 17h6l1-20z" fill="#6871A6"/>
<path transform="translate(460,1098)" d="m0 0h21v1l-10 1-37 1-19 1h-9l-2 1h-15l1-2 12-1z" fill="#7EBFC5"/>
<path transform="translate(423,510)" d="m0 0 4 2 13 13 3 8 1 7v14l11-1 3 1v2l-6 1-8-1-2-2-1-19-6-12-12-12z" fill="#6871A7"/>
<path transform="translate(463,558)" d="m0 0 4 4 3 5 1 10-1 9-4 6-1-3 1-7-1-10-1-9z" fill="#767CAA"/>
<path transform="translate(1768,543)" d="m0 0h2l2 8 1 12v16l-3 3-5-1-1-1-1-15h2l1 13 4 1v-17l-3-18z" fill="#6670A7"/>
<path transform="translate(421,548)" d="m0 0 4 4 2 5 1 35-2 22-2 4-4 2 2-6 2-5 1-8v-43l-4-8z" fill="#EE5152"/>
<path transform="translate(1743,1180)" d="m0 0h17l15 1 4 1v7l-2-3-1-2-7-1h-36l-4 1-2 4h-1v-5l-4-2z" fill="#CABAB5"/>
<path transform="translate(1753,885)" d="m0 0 5 3 15 15 1 4-3 8-1-4 1-8h-2l-5-6-4-2v-2h-2v-3h-5l-1 5-5 8-1-2 6-15z" fill="#CBACA6"/>
<path transform="translate(247,761)" d="m0 0 7 6 11 11 7 8 10 11 3 5-4-2-11-12-7-7-7-8-9-10z" fill="#D17E76"/>
<path transform="translate(793,445)" d="m0 0h9l4 2-14 1-8 3-12 5-9 8-4 4 2-6 7-6 14-8z" fill="#676CA0"/>
<path transform="translate(1732,1097)" d="m0 0h1v15l-2 1h-28v-2h-22v-1h51z" fill="#69699B"/>
<path transform="translate(724,517)" d="m0 0h1v26l-4-4-1-3v-12z" fill="#CCAAA6"/>
<path transform="translate(1306,1210)" d="m0 0 5 3 1 3v2l3 1-1 5-1 2-3-1v-3l-6-1-2-7z" fill="#7ABFC4"/>
<path transform="translate(235,1007)" d="m0 0h1v51l1 16 1 3 5 1 4 2-2 1-9-3-1-2-1-13v-46z" fill="#68BFAF"/>
<path transform="translate(273,906)" d="m0 0 1 3-1 5-2 2-4 10-3 4-3 7-8 16-3 3 3-9 15-30z" fill="#6DC0B2"/>
<path transform="translate(1696,644)" d="m0 0h17l4 4-1 7-2 2h-16v-1l16-1-1-7-2-1h-16v7l-2-1 1-7z" fill="#D27B73"/>
<path transform="translate(1240,476)" d="m0 0 3 1-9 7-6 10-4 12h-2l1-8 5-12 7-8z" fill="#686B9D"/>
<path transform="translate(409,498)" d="m0 0 7 2 10 5 1 4-9-2-7-2-3-3z" fill="#C6CFD5"/>
<path transform="translate(1305,806)" d="m0 0 3 4 7 18 1 8-13 2-5 10-4 2 4-6 4-8 5-2 6-1-2-9-6-15z" fill="#686B9E"/>
<path transform="translate(1302,564)" d="m0 0h1l1 16 6-4 6-10h2l-1 6-7 10-3 2-4-1-2-7z" fill="#6E6E9D"/>
<path transform="translate(843,560)" d="m0 0 3 1-1 6-3 1v2l-3 1-1 2-3-1-2-1 2-5 5-5z" fill="#CAD2D9"/>
<path transform="translate(1285,1304)" d="m0 0h23v1l-5 1-4 27v18h-1l-1-7v-16l3-22-15-1z" fill="#D3BDB5"/>
<path transform="translate(1326,501)" d="m0 0h2l1 8v11l-1 3-5 2-5-1-1-1v-16h1l1 14 7-1z" fill="#6670A7"/>
<path transform="translate(1698,1309)" d="m0 0h1l-1 16-2 19v14l3 1 1 5-4-2-2-4-1-8 3-32z" fill="#CABAB5"/>
<path transform="translate(1273,1080)" d="m0 0v3 7l-8 2-2 3-2 9-2-1v-8l7-8 4-5z" fill="#79BFC4"/>
<path transform="translate(1658,1181)" d="m0 0h53l-1 5-1-3h-37l-10 1-3 2z" fill="#CABAB5"/>
<path transform="translate(1734,592)" d="m0 0 3 3 5 16v5h2v26h-1l-3-30-5-16z" fill="#B47880"/>
<path transform="translate(805,578)" d="m0 0h9l1 5h-2v2l-7 1-6-4 3-3z" fill="#6C6592"/>
<path transform="translate(1663,562)" d="m0 0h1v16l-3 5h-10l-4-3 3-5h3l4 4 5 1z" fill="#6972A7"/>
<path transform="translate(1562,587)" d="m0 0 3 4v23l-5 15-4 7-1-3 4-8 4-15z" fill="#D27B73"/>
<path transform="translate(618,57)" d="m0 0 4 1-10 5h-2v2h-2l-2 4-10 8 2-5 8-9z" fill="#6DC0B0"/>
<path transform="translate(1289,1051)" d="m0 0h2l-1 10h-2v5l-6 2v-6z" fill="#79BFC4"/>
<path transform="translate(1638,1110)" d="m0 0 38 1 9 1v1h-43l-5 1z" fill="#B3BBB9"/>
<path transform="translate(1289,1172)" d="m0 0h2v2l3 1-2 1 2 5 2 2-3 3h-2l-5-6-1-6h4z" fill="#6AC4C1"/>
<path transform="translate(1701,751)" d="m0 0h17l9 1 1 3v9l-1 5h-1l-1-14-3-1-18-1z" fill="#B7C8CD"/>
<path transform="translate(832,522)" d="m0 0 3 1 1 5v15l-1 1v8l3 7 3 2-5-1-3-7v-28z" fill="#B6767C"/>
<path transform="translate(806,446)" d="m0 0 12 3 10 6v3l-14-7-8-2-14-1v-1z" fill="#69699B"/>
<path transform="translate(1711,520)" d="m0 0 17 1 7 3v1h-7v-2h-24l-9 1 1-2z" fill="#6670A7"/>
<path transform="translate(1717,1024)" d="m0 0h1v35l-2 2h-10l-4-2 13-1 1-3z" fill="#C8C4C6"/>
<path transform="translate(1259,1106)" d="m0 0h1v6l2 1 1 2v10l-2 5-2-2z" fill="#82C0C6"/>
<path transform="translate(519,600)" d="m0 0 6 1v1h-5l-1 3h-2l-1 7h-2l-1 3-1-4 1-9z" fill="#68BFAF"/>
<path transform="translate(1786,593)" d="m0 0 2 2 1 4v9l-2 5-2-1v-18z" fill="#CCAAA6"/>
<path transform="translate(1265,464)" d="m0 0h12v2l-14 1-12 4-3 2 1-4 7-4z" fill="#686A9C"/>
<path transform="translate(1318,578)" d="m0 0 1 2-7 9 1 3 16 7-4 1-10-4-6-4 3-7z" fill="#696899"/>
<path transform="translate(1660,626)" d="m0 0 4 4 3 5v2h2l3 3 5 2-4 2-8-6-5-6z" fill="#CF8E87"/>
<path transform="translate(850,551)" d="m0 0 14 1v1l-12 1-2-1v2l-8 5-5-1-2-3 1-4v3h2l1 2 6-2z" fill="#696DA0"/>
<path transform="translate(875,519)" d="m0 0 3 3v17l-3 3z" fill="#CDA8A2"/>
<path transform="translate(1269,449)" d="m0 0 3 1-2 3h8l4 3-20-1v-3z" fill="#6C71A4"/>
<path transform="translate(1727,919)" d="m0 0 1 3 1 16 4 3h8l-3 2-5 1-5-2-2-7v-15z" fill="#D27971"/>
<path transform="translate(568,1056)" d="m0 0 2 2 5 12 2 3-1 4-6 2v-2l2-1 1-4-4-9-2-6z" fill="#6DC0B1"/>
<path transform="translate(1319,565)" d="m0 0h1l-1 8-3 6h-2l-2 4-4 4-1-4 5-5 5-9z" fill="#7BBFC5"/>
<path transform="translate(1844,1353)" d="m0 0 4 4v9l-3 7-1-4 2-8-1-2-4 7-1-2z" fill="#69699B"/>
<path transform="translate(432,616)" d="m0 0h2v3l-9 6h-6v-3l10-4z" fill="#CE958F"/>
<path transform="translate(1344,1055)" d="m0 0 2 1v8l-2-1-5 5v-7l3-5z" fill="#6AC4C1"/>
<path transform="translate(1769,554)" d="m0 0h1l1 8v17l-4 1-2-2v-13h1l1 10 2 2z" fill="#D27B73"/>
<path transform="translate(1670,629)" d="m0 0 3 1 5 7v2l4 2 1 4-5-1-1-3-3-1-1-5z" fill="#69699A"/>
<path transform="translate(1190,66)" d="m0 0 5 5 6 12-4 1-7-16z" fill="#6ABFAF"/>
<path transform="translate(1810,1361)" d="m0 0 1 4-2 6v8l10 2v1h-9l-3-2-1-10-1-3z" fill="#6A6797"/>
<path transform="translate(1323,869)" d="m0 0h2l-1 4-6 1h-14l-6-2 3-1h18z" fill="#6B6694"/>
<path transform="translate(1540,648)" d="m0 0 3 1-14 8-7 2v-2l9-5z" fill="#FCB24D"/>
<path transform="translate(423,510)" d="m0 0 4 2 13 13 2 5v3h-2l-5-10-12-12z" fill="#686C9F"/>
<path transform="translate(1316,479)" d="m0 0h3l8 16 1 6-3-1-3-10z" fill="#676CA1"/>
<path transform="translate(1274,1338)" d="m0 0h2l4 11 1 1 7-1 5-5 3-2-1 4-6 5-2 1h-7l-5-8z" fill="#EE5152"/>
<path transform="translate(485,657)" d="m0 0 9 6 4 5-4 1v-2l-6-2-3-6z" fill="#67BFAD"/>
<path transform="translate(1639,594)" d="m0 0h2v17l-2 2-1-3v-12z" fill="#CABDBB"/>
<path transform="translate(739,474)" d="m0 0h2l-2 16-1 18h-1v-21l1-12z" fill="#6C6E9F"/>
<path transform="translate(791,435)" d="m0 0 3 1-13 4-12 5-2-1 12-6z" fill="#CED6DD"/>
<path transform="translate(1188,1345)" d="m0 0h2l-3 12-1 8v13l-2-3v-11l2-14z" fill="#8A7D9E"/>
<path transform="translate(364,1404)" d="m0 0 3 1-7 4-10 4-5-2-2-4 4 3 10-1v-2z" fill="#AFA4B2"/>
<path transform="translate(814,577)" d="m0 0 4 2v6l-2 2h-8l1-2h4v-2h2z" fill="#6870A5"/>
<path transform="translate(402,1100)" d="m0 0h11v1l-9 2h-15l1-2z" fill="#6CBEB4"/>
<path transform="translate(258,837)" d="m0 0 4 1 6 4 9 7-1 2-18-13z" fill="#71C0B4"/>
<path transform="translate(1196,534)" d="m0 0h2v16l-2 1-1-3v-10z" fill="#D27B73"/>
<path transform="translate(1695,1340)" d="m0 0 1 4v14l3 1 1 5-4-2-2-4-1-8 1-9z" fill="#CAB7B2"/>
<path transform="translate(1788,1308)" d="m0 0 4 5 7 11 2 3-1 3-9-14-3-5z" fill="#CBBBB6"/>
<path transform="translate(1285,1304)" d="m0 0h23v1l-5 1-2 12h-1v-12l-15-1z" fill="#CBBDB9"/>
<path transform="translate(1240,476)" d="m0 0 3 1-9 7-5 2 3-5 3-3z" fill="#676CA0"/>
<path transform="translate(838,562)" d="m0 0 4 1-1 4-5 4h-3l2-5z" fill="#FDFDFD"/>
<path transform="translate(362,493)" d="m0 0h4l-1 3-8 7h-3l3-5 3-2-1-2z" fill="#706E9C"/>
<path transform="translate(1646,1404)" d="m0 0 4 1h14v2l-3 1h-12v-2l-3-1z" fill="#8990AD"/>
<path transform="translate(1808,1362)" d="m0 0v3l-4 5-3 3-4 5h-2v-3l5-5z" fill="#807196"/>
<path transform="translate(1562,587)" d="m0 0 3 4v19h-1l-2-16z" fill="#D17C74"/>
<path transform="translate(1814,1352)" d="m0 0h1l-1 10-1-2-8 6-2 1 2-4 8-7z" fill="#C9C2C1"/>
<path transform="translate(273,906)" d="m0 0 1 3-1 5-2 2-3 7h-2l3-9z" fill="#6ABFAF"/>
<path transform="translate(1675,571)" d="m0 0 5 1 7 3v2l-6-2-5-1-4 5-2-1z" fill="#D27972"/>
<path transform="translate(713,1345)" d="m0 0 2 1-7 7-5 8-2-1 2-4 7-8z" fill="#746F9C"/>
<path transform="translate(1707,511)" d="m0 0h13l3 1v2h-11l-6-1z" fill="#CCD4DB"/>
<path transform="translate(1830,1316)" d="m0 0h2l2 6 1 9-3-3z" fill="#CDBEB9"/>
<path transform="translate(289,816)" d="m0 0 8 6 3 3-4 1v-2l-4-1v-2h-2z" fill="#68BFAE"/>
<path transform="translate(1668,626)" d="m0 0 2 1 5 10-1 2-5-5z" fill="#36455B"/>
<path transform="translate(435,609)" d="m0 0v3l-11 8-3-1 3-1 2-4v2z" fill="#6A6490"/>
<path transform="translate(1768,543)" d="m0 0h2l2 8v4l-3-1-2-10z" fill="#6A6FA1"/>
<path transform="translate(748,506)" d="m0 0 1 2-2 3h-8l-2-3 10-1z" fill="#6670A7"/>
<path transform="translate(817,449)" d="m0 0 10 5 2 4-15-7z" fill="#686A9D"/>
<path transform="translate(857,476)" d="m0 0 3 3v14l-2-1z" fill="#CD7E79"/>
<path transform="translate(759,464)" d="m0 0 2 1-8 14-1-3 6-11z" fill="#676DA2"/>
<path transform="translate(1210,1243)" d="m0 0 3 1 1 4-2 2-4-1v-4h2z" fill="#7BBFC5"/>
<path transform="translate(1330,1117)" d="m0 0 2 2v4h-2l-1 4v-2l-3 1 1-5h2z" fill="#6AC4C1"/>
<path transform="translate(314,655)" d="m0 0 4 1-14 4-4 4 1-5 3-2z" fill="#686B9E"/>
<path transform="translate(1695,522)" d="m0 0m-3 1h3v3l-7 3-3-1z" fill="#676CA1"/>
<path transform="translate(1170,55)" d="m0 0 5 1 10 5-2 1-10-3z" fill="#69BFAF"/>
<path transform="translate(1696,1361)" d="m0 0 3 1 2 5-1 6-2 2v-10h-2l-2 1z" fill="#696A9C"/>
<path transform="translate(1638,1110)" d="m0 0 20 1v1l-16 1-5 1z" fill="#C3B8B6"/>
<path transform="translate(1722,521)" d="m0 0 9 1 4 2v1h-7v-2h-6z" fill="#666EA4"/>
<path transform="translate(1769,901)" d="m0 0 4 2 1 4-3 8-1-4 1-8h-2z" fill="#CCA59F"/>
<path transform="translate(1666,635)" d="m0 0 1 2h2l3 3 5 2-4 2-8-6z" fill="#D27B73"/>
<path transform="translate(1312,594)" d="m0 0 13 5-1 3-6-2-6-4z" fill="#B2BBB9"/>
<path transform="translate(1735,524)" d="m0 0 8 4 2 4-4-2-9-4z" fill="#696A9C"/>
<path transform="translate(1269,449)" d="m0 0 3 1-2 3h8v1h-12v-4z" fill="#5E6087"/>
<path transform="translate(1263,1092)" d="m0 0v3l-2 9-2-1v-6z" fill="#7BBFC5"/>
<path transform="translate(1666,634)" d="m0 0 8 4 3 4-5-1-3-2v-2h-2z" fill="#666EA3"/>
</svg>
