<?xml version="1.0" encoding="UTF-8"?>
<svg version="1.1" viewBox="0 0 2048 1536" width="1280" height="1280" xmlns="http://www.w3.org/2000/svg">
<path transform="translate(457,359)" d="m0 0h182l15 1 11 4 5 4 7 10 2 7v102h855l12 3 11 7 8 9 8 13 4 11 2 19v275l1 5h3l1-7 7-17 2-11v-19l6-33-1-7-3-5v-8l3-9 4-5 8-4 7-12 4-8 8-7 16-8 7-1h3v-2l8-5 9-3 9-7 1-2h-15l-9-3-7-5-8-13-2-9 3-13 6-10 6-5 8-4 3-1h13l10 4 6 4 5 6 4 11 1 4v8l-8 10-9 8-8 3 7-1 9-6 5-5 4 2 10 19v2l21 3h19l16-5 5-2h10l12 5 9 3 3 4 2 7v12l-5 2-2 16-3 18 1 6 6 1 15-5 5-1h8l-1 5-1 6 5 9 5 4 1 5 2 21 2 10 8 4 8-1 14-5 4-2 2-6 4-13 5-21 5-25 8-42 3-28 1-17v-24l-2-3v-17l-3 3-1 8-3 1-4-12-6-15-5-16 1-4h7l7-4 5-7v-10l-9-39-3-14v-5l2 4 10 42 3 16 4 41v57l-4 41-6 34-9 44-5 19-7 19-12 29-8 21-9 19-10 19-10 21-8 13-9 14-8 16-7 12 24-3 35-3 17-1h44l36 3v4l-6 9-5 10-13 18-7 9-3 4-5 10-10 14-7 9-10 17-9 12-11 15-7 10-10 14-5 6-5 5-4 5-8 11-7 7-8 7-6 7-7 8-7 6-8 6-4 2-2 4-9 8-14 9-10 7-15 8-6 2v50l-1 12-3 6-6 5-5 2-6 1h-99l-32 1 1 16-2 21-5 14-11 18-7 6-14 9-4 1v2h197l19 1 1 3-1 2-5 1-1345-1h-231l-5-2 2-4 38-1h136l-13-10-10-7-8-8-9-11-5-6v-2l29-11 7-2-28-10-17-5-16-8-15-8-16-8-10-6-18-12-14-10-10-6-13-11-7-7-16-11-11-12-8-8-9-7-11-14-10-10-6-5-9-14-5-5v-3l42-12 28-5 28-3 43-1 37 2 17 2 32 6 12 3-7-19-2-5-15 9-7 3-9 1-7-6-3-5-1-6 3-7 6-5 3-1h10l10 4 5 3-5-13-12-22-3-5v-2l-18 4-13 10-6 2-8-1-6-5-2-4v-6l4-6 6-3h8l9 4 8 4 10-1 7-2-5-9-13-14-7-6-7-9-4-2-14-1-39-1-1 4-7 6-5 2h-7l-4-5-1-11 2-5 3-3h9l9 4 2 3 12 1 31 1 7 1-7-8-5-5-9-11-6-7-3-2-19-2-16-4-6-1-6 5-3 1h-14l-5-5v-13l4-6 6-3 8 1 6 4 4 7 2 4 15 5 15 3 4-1-9-10-7-9-11-11-11-14-3-2-29-1-6 5-9 3-6-1-3-5-1-6 2-7 5-4 7 1 10 7 3 2 24 2-5-5-14-15-8-10-11-9-5-4-14-6-9-8-3-6 1-6 5-7 7-3 7 1 6 5 5 10 1 10-1 7 18 18 9 11 18 18 4 6 1 1-1-10-3-14-2-13-8-10-2-6 1-8 5-6 4-2h10l5 4 2 5v12l-7 8-5 1 3 22 3 14 2 10 7 8 8 8 11 14 2 2 3-9 4-20-1-5-6-4-4-5-1-9 4-8 5-4 9-1 8 4 6 9-1 7-7 8-6 4-8 33 1 5 8 8 6 8 13 13 4 2 2-10 3-17v-6l-4-6-1-3v-7l4-8 3-2 10 1 6 3-1-21v-23l3-40 5-42 2-2 14 9 13 7 10 8 14 10 18 13 14 12 7 7 9 6 14 14 7 8 10 9 10 13 6 9 6 7 11 17 5 10 6 17 7 17 13-2 13-1 3-6 2-12 1-17-5-2-6-4-5-6-2-5-2-11-15-1-6-4-3-4-1-3v-17l6-7 2-1-1-4-6-11-4-15v-17l4-10 5-4 4-2h13v-14l6-16 6-7 6-4 14-3h11v-182h-89l-11-3-10-6-7-7-3-7-1-8v-152l1-25 6-9 7-6 10-5 6-12 5-6 9-5zm79 52-12 6-7 7-4 9-1 5 1 13 4 8 9 8 8 4 4 1h11l9-4 8-6 5-8 2-8v-9l-4-11-5-8-8-5-6-2zm25 69-19 19-3-1-7-8-9-8h-7l-16 7-8 7-6 11-2 13v18l2 1h108l2-1v-26l-2-9-5-8-7-6-19-9zm118 31-1 69-3 12-8 9-10 6-13 4-98 1-1 92v87l1 6 8 2 9 1h11l15-2 12-3 9-6 13-10 3 11 3 12 1 8v12l-4 20-6 14-9 10-7 5-10 25 1 5 9 6h2l3 9v8l-3 6-1 3-9 3h-12l-3 8-4 10-6 8-12 10v10l2 19 1 1 20 3 15 4 23 10 12 6 14 10 10 10 8 6 6 5 8 10 4 6 9 10 11 16 12 21 11 19 6 16 6 21 9 24 5 19 1 7v28l-3 12-4 8-13 18-6 5-23 9-19 5-15 3-2 2-3 22-3 11v3l19-1 837-1 12-3 7-4 10-10 6-8 2-13v-24l-2-6-404-1-9-4-5-4-3-5-2-11-1-100v-24l2-16 4-9 4-3 7-2 406-1 2-6 1-490v-59l-2-13-5-10-9-8-9-3-8-1zm984 133v1h6v-1zm-1145 300 1 4 5 6 6 3h8l9-6 4-4-1-3zm-240 13-7 5-6 3-2 8-3 15-2 6v6l12 14 15 15 8 10 1-3v-9l-4-15-7-31-3-24zm20 75-3 8 1 5 9 9 6 8 1-4-13-26zm919 124-41 1 1 9 5 2h214l1-10-1-1-46-1zm393 0-186 1-2 2 1 7 3 2h248l5-5-1-4-7-3zm-404 51-30 1v10l1 1 492 1 7-2 2-5-1-4-1-1-14-1zm-685 36-6 3-5 8-1 4v15l4 8 7 6 6 2h10l8-5 6-7 2-5v-14l-4-9-7-5-3-1z" fill="#7478B7"/>
<path transform="translate(287,811)" d="m0 0 21 12 9 6 18 13 15 11 13 10 12 11 5 4 9 7 12 12 7 8 10 9 10 13 6 9 6 7 11 17 5 10 6 17 7 17v1l-18 5-27 12-18 11-13 10-14 12-12 13-11 14-16 24-9 15-15 29-1 7 4 2-1 5-14 29-6 15-5 17-2 13v9l3 10 6 9 9 8 17 11 24 14 27 14 15 7 4 1 1 2 1 20 2 6 2 1h263l15-1 837-1 12-3 7-4 9-9 6-8 2-13v-24l-1-5-404-1-9-4-6-5-3-11v-76l4-2 20-1h41l138-1 66 1h332l1 2v71l-1 12-3 6-6 5-5 2-6 1h-99l-32 1 1 16-2 21-5 14-11 18-7 6-14 9-4 1v2h197l19 1 1 3-1 2-5 1-1345-1h-231l-5-2 2-4 38-1h136l-13-10-10-7-8-8-9-11-5-6v-2l29-11 7-2-28-10-17-5-16-8-15-8-16-8-10-6-18-12-14-10-10-6-13-11-7-7-16-11-11-12-8-8-9-7-11-14-10-10-6-5-9-14-5-5v-3l42-12 28-5 28-3 43-1 37 2 17 2 32 6 12 3-7-19-2-5-15 9-7 3-9 1-7-6-3-5-1-6 3-7 6-5 3-1h10l10 4 5 3-5-13-12-22-3-5v-2l-18 4-13 10-6 2-8-1-6-5-2-4v-6l4-6 6-3h8l9 4 8 4 10-1 7-2-5-9-13-14-7-6-7-9-4-2-14-1-39-1-1 4-7 6-5 2h-7l-4-5-1-11 2-5 3-3h9l9 4 2 3 12 1 31 1 7 1-7-8-5-5-9-11-6-7-3-2-19-2-16-4-6-1-6 5-3 1h-14l-5-5v-13l4-6 6-3 8 1 6 4 4 7 2 4 15 5 15 3 4-1-9-10-7-9-11-11-11-14-3-2-29-1-6 5-9 3-6-1-3-5-1-6 2-7 5-4 7 1 10 7 3 2 24 2-5-5-14-15-8-10-11-9-5-4-14-6-9-8-3-6 1-6 5-7 7-3 7 1 6 5 5 10 1 10-1 7 18 18 9 11 18 18 4 6 1 1-1-10-3-14-2-13-8-10-2-6 1-8 5-6 4-2h10l5 4 2 5v12l-7 8-5 1 3 22 3 14 2 10 7 8 8 8 11 14 2 2 3-9 4-20-1-5-6-4-4-5-1-9 4-8 5-4 9-1 8 4 6 9-1 7-7 8-6 4-8 33 1 5 8 8 6 8 13 13 4 2 2-10 3-17v-6l-4-6-1-3v-7l4-8 3-2 10 1 6 3-1-21v-23l3-40 5-42zm-9 146-7 5-6 3-2 8-3 15-2 6v6l12 14 15 15 8 10 1-3v-9l-4-15-7-31-3-24zm20 75-3 8 1 5 9 9 6 8 1-4-13-26zm908 175-30 1v10l1 1 492 1 7-2 2-5-1-4-1-1-14-1z" fill="#525DAA"/>
<path transform="translate(495,850)" d="m0 0h6l27 13 14 7 12 4 16 2 10 1 2 1 1 5 1 15 1 3 9-5 2 5 10 6 3 5 1 4v8l-3 6-5 5-6 2h-12l-5 15-6 9-10 9-3 2v10l2 19 20 3 15 4 23 10 12 6 14 10 10 10 8 6 7 6 8 10 4 6 9 10 11 16 12 21 11 19 6 16 6 21 9 24 5 19 1 7v28l-3 12-4 8-13 18-7 6-23 9-19 5-15 3-1 1-3 22-3 11-2 3h-258l-4-3-1-5-1-20-2-2-6-2-33-16-24-14-19-12-11-9-6-7-4-10-1-4v-9l3-16 6-20 14-30 5-9-1-5-3-3 3-9 15-29 14-22 10-14 8-10 18-20 13-11 19-13 16-9 21-9 13-4 18-3 13-1 3-6 2-12 1-17-5-2-6-4-5-6-2-5-2-11-15-1-6-4-3-4-1-3v-17l6-7 2-1 2-3h13l1-18 4-14 6-10zm23 94 1 4 5 6 6 3h8l9-6 4-4-1-3zm3 299-6 3-5 8-1 4v15l4 8 7 6 6 2h10l8-5 6-7 2-5v-14l-4-9-7-5-3-1z" fill="#F7962B"/>
<path transform="translate(457,359)" d="m0 0h182l15 1 11 4 5 4 7 10 2 7v102h855l12 3 11 7 8 9 8 13 4 11 1 21v48l-1 29v241l1 8 1 86-1 7v111l-1 17-1 2h-15l-7-1 1-553h-2l-2-13-5-10-8-7-9-3-8-1-842-1v69l-3 12-9 10-10 6-13 4h-98v185l17 2h11l15-2 12-3 9-6 11-9h2l4 11 3 12 1 8v12l-4 20-6 14-9 10-5 4-3 3-9 23-10 6-2-4-1-20-23-2-12-3-18-8-19-10-9-4h-6l-8 11-4 10-2 8-1 18-1 1h-13l-5-5-4-8-4-15v-17l4-10 5-4 4-2h13v-14l6-16 6-7 6-4 14-3h11v-182h-89l-11-3-10-6-7-7-3-7-1-8v-152l1-25 6-9 7-6 10-5 6-12 5-6 9-5zm79 52-12 6-7 7-4 9-1 5 1 13 4 8 9 8 8 4 4 1h11l9-4 8-6 5-8 2-8v-9l-4-11-5-8-8-5-6-2zm25 69-19 19-3-1-7-8-9-8h-7l-16 7-8 7-6 11-2 13v18l2 1h108l2-1v-26l-2-9-5-8-7-6-19-9z" fill="#7175B6"/>
<path transform="translate(287,811)" d="m0 0 21 12 9 6 18 13 15 11 13 10 12 11 5 4 9 7 12 12 7 8 10 9 10 13 6 9 6 7 11 17 5 10 6 17 7 17v1l-18 5-27 12-18 11-13 10-14 12-12 13-11 14-16 24-9 15-15 29-1 7 4 2-1 5-14 29-6 15-5 17-2 13v9l3 10 6 9 9 8 17 11 24 14 27 14 15 7 4 1 1 2 1 20 2 6 2 1h258l4 2-19 1-167 1h-76v15l-1 1h-51l-3-1v2l50 1 616 1h667l18 1h54v-4l3 1-1 4-5 1-1345-1h-231l-5-2 2-4 38-1h136l-13-10-10-7-8-8-9-11-5-6v-2l29-11 7-2-28-10-17-5-16-8-15-8-16-8-10-6-18-12-14-10-10-6-13-11-7-7-16-11-11-12-8-8-9-7-11-14-10-10-6-5-9-14-5-5v-3l42-12 28-5 28-3 43-1 37 2 17 2 32 6 12 3-7-19-2-5-15 9-7 3-9 1-7-6-3-5-1-6 3-7 6-5 3-1h10l10 4 5 3-5-13-12-22-3-5v-2l-18 4-13 10-6 2-8-1-6-5-2-4v-6l4-6 6-3h8l9 4 8 4 10-1 7-2-5-9-13-14-7-6-7-9-4-2-14-1-39-1-1 4-7 6-5 2h-7l-4-5-1-11 2-5 3-3h9l9 4 2 3 12 1 31 1 7 1-7-8-5-5-9-11-6-7-3-2-19-2-16-4-6-1-6 5-3 1h-14l-5-5v-13l4-6 6-3 8 1 6 4 4 7 2 4 15 5 15 3 4-1-9-10-7-9-11-11-11-14-3-2-29-1-6 5-9 3-6-1-3-5-1-6 2-7 5-4 7 1 10 7 3 2 24 2-5-5-14-15-8-10-11-9-5-4-14-6-9-8-3-6 1-6 5-7 7-3 7 1 6 5 5 10 1 10-1 7 18 18 9 11 18 18 4 6 1 1-1-10-3-14-2-13-8-10-2-6 1-8 5-6 4-2h10l5 4 2 5v12l-7 8-5 1 3 22 3 14 2 10 7 8 8 8 11 14 2 2 3-9 4-20-1-5-6-4-4-5-1-9 4-8 5-4 9-1 8 4 6 9-1 7-7 8-6 4-8 33 1 5 8 8 6 8 13 13 4 2 2-10 3-17v-6l-4-6-1-3v-7l4-8 3-2 10 1 6 3-1-21v-23l3-40 5-42zm-9 146-7 5-6 3-2 8-3 15-2 6v6l12 14 15 15 8 10 1-3v-9l-4-15-7-31-3-24zm20 75-3 8 1 5 9 9 6 8 1-4-13-26z" fill="#429975"/>
<path transform="translate(1897,465)" d="m0 0 2 4 10 42 3 16 4 41v57l-4 41-6 34-9 44-5 19-7 19-12 29-8 21-9 19-10 19-10 21-8 13-9 14-8 16-7 12 3 1-16 4-20 4-36 12-24 11-16 8-10 6-16 10-17 12-13 10-14 12-9 9-18 24h-1l1-8 14-57 11-9 16-10 4-2h4l6 8 7 3h13l7-3 5-6 2-5-1-9-5-5-9-3h-9l-10 3-2 4-4 6-1 3-16 9-12 9-4 1 2-8 13-38 3-11 10-6 16-8 12-5 4 1 7 6 10 3h9l10-5 4-6v-9l-3-5-6-4-3-1h-14l-10 5-3 4-3 7-11 5-16 8-8 5-3-1 8-18 7-16 14-26 4-3 10-4 13-3h7l5 3 7 9 9 4h8l12-5 4-6-1-8-4-6-10-5h-12l-8 4-7 4-26 8-6 1 1-5 6-9 13-16 5-7h2l2-5 9-11 5-3 15-3h19l5 2 8 11 6 4 7 2 9-1 9-5 2-3v-7l-4-6-7-6-10-2-9 1-8 5-1 1-22 1-7 2h-8l1-4 6-7 5-5h2v-2l11-9 6-4 11-5 6-2 9-1h14l5 2 6 7 9 5h12l10-5 4-4 2-4-1-9-5-6-12-4-11 1-11 4h-2l-2 5-4 5-25 3-12 3 1-5 8-13 10-24 7-16 10-3 8-6 3-1 2-4 4-11v-10l-5-9-6-3h-9l-7 4-7 11-2 7v8l3 9 3 5-2 9-11 26-7 12-6 9-11 13-6 2-1-2-1-21-4-21-2-6v-6l4-4 3-9-2-11-4-8-6-4-9-1-7 4-3 5-1 10 2 8 4 6 15 6 5 14 3 16v28l-6 11-4 5-7 4-4-4-6-17-7-10-7-6-1-2-1-14-4-9-6-5-7-2-10 1-6 4-3 7 1 9 6 10 9 6 9 1 10-5 5 5 7 8 7 15 3 11-2 6-8 11-11 14-7 9-5 7h-2l-6-17-7-10-4-6 1-13-3-9-7-8-3-2-8-1-7 2-6 5-3 6v10l5 8 8 5 4 1h9l7-2 5 5 7 10 4 11 1 11-4 13-6 9-13 27-8 19h-2l-3-12-5-12-7-16v-19l-4-8-5-5-4-2h-11l-6 3-4 5-2 6 1 9 5 7 8 4 8 1 11-2 8 16 7 19 1 3v15l-12 36-4 10h-2l-5-12-9-14-8-7-1-18-3-6-7-3v-99h4l1-7 7-17 2-11v-19l6-33-1-7-3-5v-8l3-9 4-5 8-4 7-12 4-8 8-7 16-8 7-1h3v-2l8-5 9-3 9-7 1-2h-15l-9-3-7-5-8-13-2-9 3-13 6-10 6-5 8-4 3-1h13l10 4 6 4 5 6 4 11 1 4v8l-8 10-9 8-8 3 7-1 9-6 5-5 4 2 10 19v2l21 3h19l16-5 5-2h10l12 5 9 3 3 4 2 7v12l-5 2-2 16-3 18 1 6 6 1 15-5 5-1h8l-1 5-1 6 5 9 5 4 1 5 2 21 2 10 8 4 8-1 14-5 4-2 2-6 4-13 5-21 5-25 8-42 3-28 1-17v-24l-2-3v-17l-3 3-1 8-3 1-4-12-6-15-5-16 1-4h7l7-4 5-7v-10l-9-39-3-14zm-234 179v1h6v-1z" fill="#C0C7E4"/>
<path transform="translate(976,169)" d="m0 0h24l15 3 21 7 15 8 11 9 9 11 8 11 7 14 4 13 1 6v19l-3 15-7 16-7 11-9 11-5 6-11 9-14 10-23 12-11 5-27 9-17 3-24 2h-40l-23-2-17-4-17-7-12-6-17-12-6-5-8-11-3-6-1-4v-8l5-2v-2l-5-2-4-6-5 2-11 5-9 1-5-5-5-10-2-9h-9l-6-4-5-7v-9l6-9v-6l-5-11 1-8 5-8 4-2h10l2-10 6-8 5-4 9 1 12 5 4-1 5-6 4-1 10 3 7 6 3 9 1 5 11 3 7 6 5 11-8 13-1 4 5 6 3 3v7l10-30 8-10 14-15 7-8 29-20 16-8 24-8 21-5zm-194 68-7 3-7 8-1 3v11l4 6 6 5 5 2 8-1 6-4 5-6 1-8-3-9-4-6-8-4z" fill="#E4E7F2"/>
<path transform="translate(1029,625)" d="m0 0h417l11 2 7 4 3 6 1 9v63l-2 16-5 8-5 4-3 1-12 1h-410l-6-3-4-4-2-8-1-89 3-6z" fill="#E4E7F2"/>
<path transform="translate(1880,939)" d="m0 0h44l36 3v4l-6 9-5 10-13 18-7 9-3 4-5 10-10 14-7 9-10 17-9 12-11 15-7 10-10 14-5 6-5 5-4 5-8 11-7 7-8 7-6 7-7 8-7 6-8 6-4 2-2 4-9 8-14 9-10 7-15 8-4-1-1-4v-40l-1-37-4-13-6-5-7-2-8-1h-112l-10-2 3-10 3-12 2-2 2-3 4-2 2-5 12-16 9-10 7-7 11-9 20-15 20-13 20-12 28-13 18-7 25-8 24-5 14-4 40-4z" fill="#429975"/>
<path transform="translate(452,1188)" d="m0 0h66l149 1 8 4 6 8 1 4v19l-11 69-3 19 2 1-2 2-3 22-3 11-2 3h-258l-4-3-1-5-1-20-2-3-10-58-8-52v-10l3-6 6-4 3-1zm69 55-6 3-5 8-1 4v15l4 8 7 6 6 2h10l8-5 6-7 2-5v-14l-4-9-7-5-3-1z" fill="#E4E7F2"/>
<path transform="translate(1473,487)" d="m0 0h61l12 3 11 7 8 9 8 13 4 11 1 21v48l-1 29v241l1 8 1 86-1 7v111l-1 17-1 2h-15l-7-1 1-553h-2l-2-13-5-10-10-9-4-2-6-1-845-1v-22z" fill="#2C3786"/>
<path transform="translate(1555,1281)" d="m0 0 18 1 5 1v3h2l1 12-2 21-5 14-11 18-7 6-14 9-4 1v2h197l17 1v4l-5 1h-49l-18-1h-667l-616-1-42-1-8-1v-2h54v-15l1-1h76l167-1 19-1 1-1 15-1 837-1 12-3 7-4 9-9 6-8 2-13 1-2v-27z" fill="#2D3886"/>
<path transform="translate(418,387)" d="m0 0h6l1 1v153l1 20 3 15 5 8 8 5 11 3 53 1h145l12-1v-2l8-5 2 1-1 7-3 5-5 6-12 6-8 2h-98v185l17 2h11l15-2 12-3 9-6 11-9h2l4 11 3 12 1 8v12l-4 20-6 14-9 10-5 4-3 3-9 23-10 6-2-4-1-20-23-2-12-3-18-8-19-10-9-4h-6l-8 11-4 10-2 8-1 18-1 1h-13l-5-5-4-8-4-15v-17l4-10 5-4 4-2h13v-14l6-16 6-7 6-4 14-3h11v-182h-89l-11-3-10-6-7-7-3-7-1-8v-152l1-25 6-9 7-6z" fill="#525DAA"/>
<path transform="translate(287,811)" d="m0 0 21 12 9 6 18 13 15 11 13 10 12 11 5 4 9 7 12 12 7 8 10 9 10 13 6 9 6 7 3 4-1 2-6-4-5-5-10-4-5-1-2 1v4l-9 5-14 8-9 2-9 8-6 5h-2l-2 4h-2l-2 5-4 7-2 4-11 7-5 7-2 4v6l-3 6-2 6-4 4-3 5h-2l-1 6h-2v2h-2v13l1 3-2 5-1 8h2l1 5h2l7 11 2 6-8 1-11-2-8-4v-2h-13l-7 3-3 1 1 8-2 6-2-2-1-6 3-7 6-5 3-1h10l10 4 5 3-5-13-12-22-3-5v-2l-18 4-13 10-6 2-8-1-6-5-2-4v-6l4-6 6-3h8l9 4 8 4 10-1 7-2-5-9-13-14-7-6-7-9-4-2-14-1-39-1-1 4-7 6-5 2h-7l-4-5-1-11 2-5 3-3h9l9 4 2 3 12 1 31 1 7 1-7-8-5-5-9-11-6-7-3-2-19-2-16-4-6-1-6 5-3 1h-14l-5-5v-13l4-6 6-3 8 1 6 4 4 7 2 4 15 5 15 3 4-1-9-10-7-9-11-11-11-14-3-2-29-1-6 5-9 3-6-1-3-5-1-6 2-7 5-4 7 1 10 7 3 2 24 2-5-5-14-15-8-10-11-9-5-4-14-6-9-8-3-6 1-6 5-7 7-3 7 1 6 5 5 10 1 10-1 7 18 18 9 11 18 18 4 6 1 1-1-10-3-14-2-13-8-10-2-6 1-8 5-6 4-2h10l5 4 2 5v12l-7 8-5 1 3 22 3 14 2 10 7 8 8 8 11 14 2 2 3-9 4-20-1-5-6-4-4-5-1-9 4-8 5-4 9-1 8 4 6 9-1 7-7 8-6 4-8 33 1 5 8 8 6 8 13 13 4 2 2-10 3-17v-6l-4-6-1-3v-7l4-8 3-2 10 1 6 3-1-21v-23l3-40 5-42zm-9 146-7 5-6 3-2 8-3 15-2 6v6l12 14 15 15 8 10 1-3v-9l-4-15-7-31-3-24zm20 75-3 8 1 5 9 9 6 8 1-4-13-26z" fill="#52AC84"/>
<path transform="translate(352,1087)" d="m0 0 1 2-7 11-6 9-8 13-8 16-5 9v10l16 8 9 4 12 5 10 5 12 3 7 2 18 1 20 1h221l2-2 1-36h2l3 8 4 10-2 4-5 4-1 5 6 1 12 5 7-3 13-4 22-10 16-9 8-4 7 23 8 21 5 19 1 7v28l-3 12-4 8-13 18-7 6-23 9-19 5-14 2-2-1 1-14 6-35 6-39v-19l-3-7-4-5-7-3-149-1h-66l-64 1-8 4-3 6v10l6 40 6 36 5 27v8l-6-2-33-16-24-14-19-12-11-9-6-7-4-10-1-4v-9l3-16 6-20 14-30 5-9-1-5-3-3 3-9 15-29 14-22z" fill="#F5A69D"/>
<path transform="translate(1067,654)" d="m0 0h329l29 1 6 3 3 7 1 7v21l-3 11-5 3-7 1-273 1h-77l-13-2-6-5-3-8-1-12 2-15 3-7 3-4z" fill="#C0C7E4"/>
<path transform="translate(214,1110)" d="m0 0h13l37 2 17 2 32 6v1h-9l-2 1h-7l-2-1v-3h-3v2l-12 3-5 2h-4l-12 4v7l1 3v11l-2 4-6 2 1 6-4 10-4 7 1 11-1 7 1 7 2 11 2 6v19l1 5h2v10l5 7 1 4 4 3v2l6 2 6 5 12 6 10 7 8 4 7 4-1 2-17-4-28-14-14-8-14-7-15-10-14-10-10-6-16-12-10-10-16-11-11-12-8-8-9-7-11-14-10-10-6-5-9-14-5-5v-3l42-12 28-5 28-3z" fill="#52AC84"/>
<path transform="translate(495,850)" d="m0 0h6l27 13 14 7 12 4 16 2 10 1 2 1 1 5 1 15 1 3 9-5 2 5 10 6 3 5 1 4v8l-3 6-5 5-6 2h-12l-5 15-6 9-10 9-3 2v10l2 19 20 3 3 2-16 1-3 1-2 15-6 10-5 6-9 5-8 3h-14l-11-5-8-6-7-14-3-7-2-9-1-2-4-2 9-1 3-6 2-12 1-17-5-2-6-4-5-6-2-5-2-11-15-1-6-4-3-4-1-3v-17l6-7 2-1 2-3h13l1-18 4-14 6-10zm23 94 1 4 5 6 6 3h8l9-6 4-4-1-3z" fill="#F5A69D"/>
<path transform="translate(1577,536)" d="m0 0h1l1 13v275l1 104 6 2 3 4 1 3 1 18 8 7 9 14 4 9v3h2l3-10 12-36v-15l-6-17-9-20-13 2-9-2-8-6-4-8 1-9 4-7 5-4 3-1h11l7 4 5 7 2 5v19l8 18 6 16v6h2l3-9 10-23 11-21 3-5 3-10-1-11-5-13-8-11-4-1-5 2h-9l-8-3-7-6-3-6v-10l5-8 7-5 8-1 7 2 8 8 3 6 1 7-1 11 11 16 5 13v4l5-5 4-6 11-14 4-5 9-12 1-5-4-14-8-15-7-7v-2l-5 1-4 3-9 1-8-4-5-4-6-10-1-9 4-8 6-4 10-1 9 3 7 8 2 9 1 11 5 5 7 8 5 10 5 15 5-1 5-4 8-14v-28l-4-19-3-11-11-3-6-4-4-7-1-12 3-8 6-5 9-1 8 4 5 7 3 12-2 8-3 5-2 2 1 9 4 18 1 6 1 23 7-4 9-11 7-10 6-11 12-28 1-7-5-9-1-5v-8l4-11 7-9 6-3h9l7 4 5 9v10l-4 11-5 5-7 6-9 3h-3l-3 9-9 21-5 11-8 14v2l11-3 25-3 6-9 9-4 10-2 9 1 9 4 5 6 1 9-4 7-10 6-3 1h-12l-10-6-6-7-4-1h-14l-12 2-9 4-10 5-10 9h-2v2l-8 7-5 6-1 3 11-2 4-1 22-1 5-4 8-3 12 1 7 4 7 8 1 2v7l-5 5-10 5-10-1-8-4-6-7-4-6-4-1h-19l-15 3-5 3-10 13-1 2h-2l-2 4-11 14-9 12-3 7 29-9 9-4 6-4 3-1h12l10 5 4 5 2 5-1 7-4 5-12 5h-8l-10-5-8-10-3-1h-7l-19 5-7 4-18 34-9 22-2 4 5-2 18-10 13-5 5-10 5-4 7-3h14l8 4 4 4 1 3v9l-5 7-10 5h-9l-12-4-6-6-6 1-20 9-14 8-8 26-8 23-2 7 9-5 11-8 9-5h2l1-5 6-8 6-3 4-1h9l9 3 5 4 2 5-1 9-4 6-6 5-4 1h-13l-7-3-6-7v-2l-10 4-18 12-6 5-15 60v4l2-1-1 3-4 2-2 5h-1l1-8 17-67v-10l-3-10-8-14-8-9-4 1-6 4h-2v9l-2-3 1-8-1-85-1-14v-235l1-29z" fill="#6E77B5"/>
<path transform="translate(416,934)" d="m0 0 5 1 11 5 6 6 7 4 9 15 8 22 7 17v1l-18 5-27 12-18 11-13 10-14 12-12 13-11 14-16 24-9 15-3 3-3-1-7-19-2-5-15 9-7 3-9 1-7-6-1-7 1-3v-7l7-4 3-1h9l4 1v2l6 2 5 2 16 1-6-11-3-4v-2h-2l-1-5h-2v-8l2-7-1-2 1-12h2v-2h2l-1-4 3-4 1 1 5-8h2l2-9 2-5 1-5 3-6 5-6 8-5h2l2-7 6-9 8-7 11-9 5-3 6-1 11-6 11-7 1-4z" fill="#429975"/>
<path transform="translate(828,584)" d="m0 0h30l16 4 16 6 19 10 13 11 8 10 7 10 9 17 6 18 2 14v18l-3 16-5 15-9 16-8 12-9 10-13 11-11 8-8 4-26 7-13 2h-23l-17-4-18-5-15-10-10-8-14-15-10-16-6-12-4-16-2-16v-12l3-24 5-15 8-14 11-13 8-10 9-8 14-8 17-7 17-5zm9 3-16 2-20 6-16 7-14 10-9 9-7 9-9 13-9 19-2 7-1 8v35l4 16 5 12 10 16 8 10 4 4 2-1 4-19 5-9 11-13 7-7 12-6 14-3 4 1 8 10h2v2l6 3 5-1 5-4 8-11 12 1 14 5 11 7 6 7 9 12 4 13 3 10h3l6-7 10-17 8-16 5-17 1-6v-22l-3-16-6-16-10-18-8-10-9-9-17-12-26-10-14-3z" fill="#41B6A5"/>
<path transform="translate(1880,939)" d="m0 0h44l36 3v4l-6 9-5 10-13 18-7 9-3 4-5 10-10 14-7 9-10 17-9 12-11 15-7 10-10 14-5 6-5 5-4 5-8 11-7 7-8 7-3 2 2-4 7-7h2l1-5 4-6h2l2-4 5-5 7-9 1-3h3l1-4h2l1-5 3-5 3-1 2-5 4-4 5-13 2-4v-4l-2 1-1-2-6 5h-2l-1-3 1-3-11-1-7-1-4-2 1-9 3-5v-8l-1-3 1-7h-2v-9l-4-4-3-6-4-1-6-8-9-5-2-11 1-5 2-2-6-5-4-4 1-3-7-1-15 3-22 5-27 9-26 11-22 11-2-1 10-6 28-13 18-7 25-8 24-5 14-4 40-4z" fill="#52AC83"/>
<path transform="translate(1238,1006)" d="m0 0h37l19 1 7 3 4 5v7l-4 7-5 3h-412l-9-2-6-6v-6l6-10 2-1z" fill="#C4CAE5"/>
<path transform="translate(319,1159)" d="m0 0 11 7 14 7 14 8 10 5v3h2l1 2 4-1v2l7-3 4-1 21-1 45 1v1l-64 1-8 4-3 6v10l6 40 6 36 5 27v8l-6-2-33-16-24-14-19-12-11-9-6-7-4-10-1-4v-9l3-16 6-20 14-30 5-9z" fill="#F5A69D"/>
<path transform="translate(1285,290)" d="m0 0h12l15 2 10 4 11 8 7 8 9 19 2 9v19l-4 15-7 13-7 8-12 8-16 4h-22l-15-3-9-6-7-7-12-16-5-13-1-4v-20l4-12 5-9 8-10 9-9 12-6zm36 32-5 3-7 7-11 9-10 9-3 3-4-1-10-7-7-3h-6l-1 2v6l5 8 18 18 3 1 11-9 13-11 13-12 8-9 2-4v-6l-3-3z" fill="#F89E77"/>
<path transform="translate(893,892)" d="m0 0h317l21 1 9 3 4 5v6l-5 8-3 2-7 1h-349l-6-2-4-5-1-6 4-10 2-2z" fill="#C2C9E4"/>
<path transform="translate(624,787)" d="m0 0h2l4 15 1 8v12l-4 20-6 14-9 10-5 4-3 3-9 23-10 6-2-4-1-20-23-2-12-3-18-8-19-10-9-4h-6l-8 11-4 10-2 8-1 18-1 1h-13l-5-5-4-8-4-15v-17l4-10 5-4 4-2h13v-14l4-10h2l2-6 3-3 2 1 11 1 15 5 33 14 7 2 16 1 15-4 12-6 9-8 8-12 4-11z" fill="#262B6E"/>
<path transform="translate(1214,845)" d="m0 0h233l12 3 6 4 5 10 1 5v186l-2 12-6 9-5 3-5 1-125 1h-602l-11-1-5-3-1-4v-212l2-10 4-3zm-485 4-14 1-2 6-1 14v45l1 48h23v2h-23v105l1 5 9 1h715l16-1 7-4 5-10 1-8v-87l-1-1-77-1h-60l-516 1v-2h653l1-41v-50l-2-12-6-8-6-2-16-1z" fill="#AEB3D6"/>
<path transform="translate(795,198)" d="m0 0 8 2 7 4 4 5 3 12 11 3 7 6 5 11-8 13-1 4 5 6 3 3-1 6-3 7-3 4h-2v2l-9 4-8 4-5 10-6 5-2 1h-8l-5-5-2-3-5 2-11 5-9 1-5-5-5-10-2-9h-9l-6-4-5-7v-9l6-9v-6l-5-11 1-8 5-8 4-2h10l2-10 6-8 5-4 9 1 12 5 4-1 5-6zm-13 39-7 3-7 8-1 3v11l4 6 6 5 5 2 8-1 6-4 5-6 1-8-3-9-4-6-8-4z" fill="#F7962C"/>
<path transform="translate(615,1320)" d="m0 0h50l1 4v8l-4 16-2 3h-258l-4-3-1-5-1-22h149z" fill="#C0C7E4"/>
<path transform="translate(827,612)" d="m0 0 14 1 8 2 18 2 5 3 8 11 2 8-1 14-7 20-3 10-10 15-9 8-7 3-9-1-6-4-7-6-7-10-9-24-4-16v-10l3-10 7-9 6-5z" fill="#F5A79E"/>
<path transform="translate(1577,536)" d="m0 0h1l1 13v275l1 104 6 2 3 4 1 3 1 18 8 7 9 14 4 9v3h2l3-10 12-36v-15l-6-17-9-20-13 2-9-2-8-6-4-8 1-9 4-7 5-4 3-1h11l7 4 5 7 2 5v19l8 18 6 16v6h2l3-9 10-23 11-21 3-1-2 9-9 16-8 18-7 16 5-2 18-10 13-5 5-10 5-4 7-3h14l8 4 4 4 1 3v9l-5 7-10 5h-9l-12-4-6-6-6 1-20 9-14 8-8 26-8 23-2 7 9-5 11-8 9-5h2l1-5 6-8 6-3 4-1h9l9 3 5 4 2 5-1 9-4 6-6 5-4 1h-13l-7-3-6-7v-2l-10 4-18 12-6 5-15 60v4l2-1-1 3-4 2-2 5h-1l1-8 17-67v-10l-3-10-8-14-8-9-4 1-6 4h-2v9l-2-3 1-8-1-85-1-14v-235l1-29z" fill="#535EAA"/>
<path transform="translate(116,832)" d="m0 0 7 1 6 5 5 10 1 10-1 7 18 18 9 11 18 18 4 6 1 1-1-10-3-14-2-13-8-10-2-6 1-8 5-6 4-2h10l5 4 2 5v12l-7 8-5 1 3 22 3 14 2 10 7 8 8 8 11 14 2 2 3-9 4-20-1-5-6-4-4-5-1-9 4-8 5-4 9-1 8 4 6 9-1 7-7 8-6 4-8 33 1 5 8 8 6 8 13 13 4 2 2-10 3-17 2-1 1 7-3 15-3 11-3-2h-3l2 5-53-1-1 4-7 6-5 2h-7l-4-5-1-11 2-5 3-3h9l9 4 2 3 12 1 31 1 7 1-7-8-5-5-9-11-6-7-3-2-19-2-16-4-6-1-6 5-3 1h-14l-5-5v-13l4-6 6-3 8 1 6 4 4 7 2 4 15 5 15 3 4-1-9-10-7-9-11-11-11-14-3-2-29-1-6 5-9 3-6-1-3-5-1-6 2-7 5-4 7 1 10 7 3 2 24 2-5-5-14-15-8-10-11-9-5-4-14-6-9-8-3-6 1-6 5-7z" fill="#44A07E"/>
<path transform="translate(1657,1014)" d="m0 0h5l1 4-4 7v5l2 4-2 6 1 5 10 2-1 4v3l3 2 2 5v10h2l1 6 3 1v3l4 4-3 1-2 4-4 2 2 2v3l-9 2-39 1h-34l-10-2 3-10 3-12 2-2 2-3 4-2 2-5 12-16 9-10 7-7 7-6 10-4 7-6z" fill="#2A876D"/>
<path transform="translate(1782,666)" d="m0 0h9l7 4 5 9v10l-4 11-5 5-7 6-9 3h-3l-3 9-9 21-5 11-8 14v2l11-3 25-3 6-9 9-4 10-2 9 1 9 4 5 6 1 9-4 7-10 6-3 1h-12l-10-6-6-7-4-1h-14l-12 2-9 4-10 5-10 9h-2v2l-8 7-5 6-1-2-2-1 5-5 6-11v-28l-4-19-3-11-11-3-6-4-4-7-1-12 3-8 6-5 9-1 8 4 5 7 3 12-2 8-3 5-2 2 1 9 4 18 1 6 1 23 7-4 9-11 7-10 6-11 12-28 1-7-5-9-1-5v-8l4-11 7-9z" fill="#6B7CB4"/>
<path transform="translate(624,787)" d="m0 0h2l2 9-4 9-1 7-4 10-7 9-5 6-12 8-13 5-16 2-15-2-15-5-9-4-7-3-10-4-11-3-9 1-1 2-3 1-1 3h-2l-2 9-8 9h-2v2h-2l-3 12-3 14 2 8 4 4 10 1v-7h1v8l-1 1h-13l-5-5-4-8-4-15v-17l4-10 5-4 4-2h13v-14l4-10h2l2-6 3-3 2 1 11 1 15 5 33 14 7 2 16 1 15-4 12-6 9-8 8-12 4-11z" fill="#2D3886"/>
<path transform="translate(1470,316)" d="m0 0h16l11 4 8 5 5 8 5 12 1 4v13l-4 10-6 9-9 7-12 4h-14l-12-4-9-8-7-10-4-10-1-10 3-10 6-11 9-8 9-4zm5 28-6 4-3 4v8l4 6 4 3h9l6-5 2-3v-10l-6-5-5-2z" fill="#7278B7"/>
<path transform="translate(503,971)" d="m0 0 10 1 16 3h14l13-1 2 2-14 4-16 1-2 1 1 5 4 1 2 3h3l6-1 10-2 3-3h4l2 7 1 9 20 3 3 2-16 1-3 1-2 15-6 10-5 6-9 5-8 3h-14l-11-5-8-6-7-14-3-7-2-9-1-2-4-2 9-1 3-6 4-23z" fill="#F5A69D"/>
<path transform="translate(528,613)" d="m0 0 7 1 9-1 1 1 1 134v42l-1 6-14-2-6-2-1-3v-175z" fill="#2C3786"/>
<path transform="translate(208,1368)" d="m0 0h25l114 1v2l50 1 616 1h667l18 1h54v-4l3 1-1 4-5 1-1345-1h-231l-5-2 2-4z" fill="#646DB1"/>
<path transform="translate(523,741)" d="m0 0 2 1v47l1 3 16 3 3 1v-5h1v6l17 2h11l15-2 12-3 9-6 11-9h2l2 4-1 5h-2l-3 11-9 13-9 8-14 7-13 3-16-1-14-5-28-12-14-4-10-1-4-1-2 6-1 2h-2l2-6 6-7 6-4 14-3h11z" fill="#535EAB"/>
<path transform="translate(1332,304)" d="m0 0 5 4 6 10 6 13 2 9v19l-4 15-7 13-7 8-12 8-16 4h-22l-15-3-9-6-7-7-7-9 1-2 7 8 4 4 5 2v2l5 1v2l3-1 5 2 6 1h4 5l2 1 5-1v-3h-2v-3h2l2-11h2l1-5 3-1 1-2h2l-1-4 3-7-7 2v2l-5 4-13 3 6-7 14-11 16-15 6-7 3-9 2 1 7-1v2h2l-3-15-3-4v-2l-3-1z" fill="#F5A69C"/>
<path transform="translate(1667,586)" d="m0 0h13l10 4 6 4 5 6 4 11 1 4v8l-8 10-9 8-8 3 9-1-5 5h-2l-1 2-15-1-9-3-7-5-8-13-2-9 3-13 6-10 6-5 8-4zm-4 58v1h6v-1z" fill="#C0C7E4"/>
<path transform="translate(1588,958)" d="m0 0 4 1 8 9 9 16 2 8v10l-17 67-7 23-4 7-5 1 1-136 8-5z" fill="#C0C7E4"/>
<path transform="translate(827,612)" d="m0 0 14 1 8 2 18 2 5 3 8 11 2 8-1 14-5 15-2 1-4-15-1-7h-51l-5 20-3 4-4-10-3-13v-10l3-10 7-9 6-5z" fill="#2F3A88"/>
<path transform="translate(1468,859)" d="m0 0 2 3 1 5v186l-2 12-6 9-5 3-5 1-125 1h-124l-273-1v-2h-159v-1h666l16-1 6-3 5-10 1-8 1-67z" fill="#969BCA"/>
<path transform="translate(757,993)" d="m0 0h6l10 9 8 8h3l9-11 8-5 6-1 5 2 1 2v6l-6 10-5 5-6 4-1 2 4 2 8 8 5 8 1 7-5 4-8-1-10-6-7-8-4 2-5 5-9 7-6 1-8-5v-5l10-13 5-7-7-7-7-11-1-5 3-5z" fill="#F5A89F"/>
<path transform="translate(358,668)" d="m0 0h7l11 4 10 10 4 8v14l-4 8-7 7-8 5-3 1h-11l-8-3-6-5-7-10-1-3v-14l5-10 9-9zm3 19-6 4-5 5 1 7 9 6 6 1 5-5v-11l-3-6z" fill="#F89D70"/>
<path transform="translate(828,584)" d="m0 0h30l16 4 16 6 19 10 13 11 8 10 7 10 9 17 6 18 2 14v18l-3 16-5 15-9 16-10 15h-2l2-7 8-14 8-16 5-17 1-6v-22l-3-16-6-16-10-18-8-10-8-8-17-12-26-10-14-3-20-1-16 2-20 6-16 7-14 10-8 8-7 9-9 13-9 19-2 7-1 8v35l4 16 5 12 10 16 8 10 3 3v3h-3l-7-8-7-9-10-17-5-15-3-22v-12l3-24 5-15 8-14 11-13 8-10 9-8 14-8 17-7 17-5z" fill="#71B2AE"/>
<path transform="translate(735,847)" d="m0 0h23l63 1 119-1h428l83 1 5 2-3 1-16-1h-717v-1z" fill="#E5E8F2"/>
<path transform="translate(678,487)" d="m0 0h795v1h-792v22l13-1 832 1 8 2 3 3-16-3-841-1-2-2z" fill="#6D74B4"/>
<path transform="translate(804,883)" d="m0 0h8l4 3v10l-7 9-12 11-12 12-6 3-10-6-9-10-5-6-7-6-1-7 5-6 6-1 8 7 7 7 5 4 5-2 8-9 7-8z" fill="#51AC83"/>
<path transform="translate(352,1087)" d="m0 0 1 2-7 11-6 9-8 13-8 16-5 9v10l16 8 9 4 12 5 10 5 12 3 7 2 18 1 20 1h221l2-2 1-36h2l3 8 4 10-2 4-5 4-1 5 6 1 12 5 7-3 13-4 22-10 16-9 5-1-3 3-9 5-11 7-10 6h-3v2l-4 2 1 9 1 7-1 3-5-2-2-6-4-1v-2l-12-3h-266l-15 1-11 3h-4l-1-3h-2v-3l-6-2-14-8-11-6-14-7-8-6-1-3 4-10 14-27 14-22z" fill="#F99E76"/>
<path transform="translate(1663,962)" d="m0 0h9l9 3 5 4 2 5-1 9-4 6-6 5-4 1h-13l-7-3-6-7v-2l-10 4-18 12-6 5-15 60v4l2-1-1 3-4 2-2 5h-1l1-8 17-67 2-11h2l1 6 9-5 11-8 9-5h2l1-5 6-8 6-3z" fill="#535DAA"/>
<path transform="translate(1897,465)" d="m0 0 2 4 10 42 3 16 4 41v57l-4 41-6 34-9 44-5 19-6 17-5-2 2-3h2l2-6 4-13 5-21 5-25 8-42 3-28 1-17v-24l-2-3v-17l-3 3-1 8-3 1-4-12-6-15-5-16 1-4h7l7-4 5-7v-10l-9-39-3-14z" fill="#C2C9E5"/>
<path transform="translate(715,846)" d="m0 0h10l10 1v1l-20 3-1 5-1 14v93h23v2h-23l1 110 217 1v2l-157 1h-48l-11-1-5-3-1-4v-212l2-10z" fill="#6E81B4"/>
<path transform="translate(248,1038)" d="m0 0h8l9 4 8 4 10-1 5-1 6 1 1-3 7 8 8 9 1 2 2-3 2 9-1 3h2l1 5h2l7 11 2 6-8 1-11-2-8-4v-2h-13l-7 3-3 1 1 8-2 6-2-2-1-6 3-7 6-5 3-1h10l10 4 5 3-5-13-12-22-3-5v-2l-18 4-13 10-6 2-8-1-6-5-2-4v-6l4-6z" fill="#51AC84"/>
<path transform="translate(1470,316)" d="m0 0h16l11 4 8 5 5 8-1 2-3-4v-2l-9-2-9 1v2l-4 2-12 1-10 5-5 10-3 16-2 1-2 4 1 8h-3l-6-9-4-13 1-10 8-16 9-8 9-4z" fill="#C0C7E4"/>
<path transform="translate(1577,536)" d="m0 0h1l1 13v275l1 104 6 2 3 4 1 3 1 18 8 7 9 14 4 9v3h2l3-10 12-36 1-13h1v11l2 1-8 26-8 23-2 6h-1v-5h-2v8h-1l-3-15-9-16-8-9-4 1-6 4h-2v9l-2-3 1-8-1-85-1-14v-235l1-29z" fill="#5763AC"/>
<path transform="translate(1782,666)" d="m0 0h9l6 3 1 4 3 9-2 12-6 9-7 6-11 4-3 3-2-7-4-7-1-5v-8l4-11 7-9z" fill="#515CAA"/>
<path transform="translate(1631,789)" d="m0 0 10 2 8 8 3 6 1 7-1 11 1 5-7-2-5 2h-9l-8-3-7-6-3-6v-10l5-8 7-5z" fill="#545FAB"/>
<path transform="translate(976,169)" d="m0 0h24l15 3 21 7 15 8 11 9 9 11 8 11 7 14 4 13 1 6v19l-1 7-2-1v-18l-2-16-4-9-4-8-1-3h-2l-2-4-5-5-7-6-3-4v-2h-2l-3-3-8-7-10-7-16-7-2-2-24-3h-15l-15 2-16 5-6 3-15 4-11 7-7 3-8 5h-2v2l-9 5h-2v2l-11 7-6 7-4 7-4 5h-2v2l-7 5-2 3h-2l2-5 11-12 7-8 10-11 15-10 13-9 16-8 24-8 21-5z" fill="#FCFCFC"/>
<path transform="translate(1660,736)" d="m0 0 10 1 6 4 5 6 1 22-5 2-5 3h-9l-9-6-5-4-4-9 1-9 4-6 5-3z" fill="#535EAA"/>
<path transform="translate(503,971)" d="m0 0 10 1 16 3h14l13-1 2 2-14 4-16 1-2 1 1 5 4 1 2 3h3l6-1 10-2 3-3h4l-1 6-3 7-7 2-3-1-1 3h-8l-15-2-7-2-7-3-5-5-1-11 1-7z" fill="#F89E76"/>
<path transform="translate(208,1368)" d="m0 0h25l114 1v2l50 1 7 1v1l-130 1h-101l-5-2 2-4z" fill="#666EB3"/>
<path transform="translate(1179,1219)" d="m0 0h488l2 1v2h-47l-443-1z" fill="#9AA0CD"/>
<path transform="translate(1472,335)" d="m0 0h13l10 6 5 7 1 4v11l-2 4h-2l-1 5-7 4-5 1-2 1-10-1-6-4-5-5-2-4v-18l3-4h2l2-4zm3 9-6 4-3 4v8l4 6 4 3h9l6-5 2-3v-10l-6-5-5-2z" fill="#5B66AE"/>
<path transform="translate(1667,586)" d="m0 0h13l10 4 6 4 5 6 4 11 1 4v8l-8 10-9 8-4 1 5-5 8-7 2-3v-10l-3-11-1-4h-2l-4-5-9-3-6-1-14 3-3 3-5 8h-2l-1 15 3 14 4 2 4 4 7 1 1 1h17l4-1-5 5h-2l-1 2-15-1-9-3-7-5-8-13-2-9 3-13 6-10 6-5 8-4z" fill="#E5E8F2"/>
<path transform="translate(1691,902)" d="m0 0h10l8 4 4 4v2h2v9l-5 7-5 3h-17l-8-4-6-5-5-1 4-3 4-9 7-5z" fill="#515CAA"/>
<path transform="translate(1807,753)" d="m0 0h13l8 4 4 5 1 6-3 7-5 4-7 3h-11l-7-4-7-7v-2l-3-1 1-5 3-5z" fill="#515CAA"/>
<path transform="translate(1716,852)" d="m0 0h10l10 5 4 5 2 4-2 9-4 3-8 2h-11l-7-4-6-7-4-4-4-2 2-2 12-6z" fill="#515CAA"/>
<path transform="translate(1705,690)" d="m0 0h10l8 7 3 8v9l-3 9-6 3-11-3-7-6-2-4v-17z" fill="#515CAA"/>
<path transform="translate(1629,185)" d="m0 0 6 1 24 11 16 8 13 6 11 6 39 26 18 14 11 9 13 11 16 16 8 7 9 10 7 9 10 11 11 15 9 14 12 19 8 15 12 26 11 27 3 11-1 4-7-20-8-20-10-22-8-16-11-17-16-24-11-14-12-14-7-8-28-28-11-9-16-13-16-12-10-7-10-6-18-12-14-8-26-13-27-12z" fill="#FCFCFC"/>
<path transform="translate(1764,799)" d="m0 0h11v2l5 1 6 5 4 6-1 7-1 2h-2v3l-7 2h-10l-7-3-7-8-4-8 7-6z" fill="#515CAA"/>
<path transform="translate(116,832)" d="m0 0 7 1 6 5 5 10 1 10-1 7 2 3-3 1-5-3-11-3-8-6-4-5-2-4 1-6 5-7z" fill="#429A77"/>
<path transform="translate(814,589)" d="m0 0v3l-18 6-14 7-12 9-7 7-7 9-9 13-9 19-2 7-1 8v35l4 16 5 12 10 16 8 10 3 3v3h-3l-7-8-7-9-10-17-5-15-3-22v-12l3-24 5-15 8-14 11-13 8-10 9-8 14-8 17-7z" fill="#709BB4"/>
<path transform="translate(226,893)" d="m0 0 9 1 7 5 4 7-1 7-7 8-9 6-10-7-4-5-1-9 4-8 5-4z" fill="#2C896E"/>
<path transform="translate(288,1084)" d="m0 0h9l4 1v2l6 2 5 5 1 2-2 6-10 6-7 3-9 1-7-6-1-7 1-3v-7l7-4z" fill="#2B876D"/>
<path transform="translate(452,1188)" d="m0 0h66l149 1 8 4 6 8 1 4v19h-1l-1-16-3-8-4-6-7-3-60 1h-61l-151-1h-9l3-2z" fill="#C0C7E4"/>
<path transform="translate(301,987)" d="m0 0h5l6 5 3 8-3 9-5 6-5 4-3 1-2 2-2-1v2h-3l-4-16v-12l8-6z" fill="#2B886D"/>
<path transform="translate(248,1038)" d="m0 0h8l9 4 8 4 5 1v2l-6 3-12 9-6 2-8-1-6-5-2-4v-6l4-6z" fill="#4FAD88"/>
<path transform="translate(486 1e3)" d="m0 0h10l2 15 5 10 5 7 12 6 3 2h8l7-2 8-3 5-6 5-5 2-8 5-15 2-1 12 1 8 2v1l-16 1-3 1-2 15-6 10-5 6-9 5-8 3h-14l-11-5-8-6-7-14-3-7-2-9-1-2z" fill="#F89D75"/>
<path transform="translate(735,847)" d="m0 0h23l63 1 119-1h81v1l-36 1-3 1h-262v-1z" fill="#C0C7E4"/>
<path transform="translate(776,231)" d="m0 0 5 1v2l9 3-3 1-9 1-8 7-2 5v11l4 6 5 4 5 2 8-1 6-4 4-5 1-8-3-9-3-4v-2l4 2 4 7 1 2-1 15-3 5-11 5-7 2h-7l-1 2-4-2v-2l-3-1-6-9-2-9 1-11 4-8 3-3 6-3z" fill="#F8A073"/>
<path transform="translate(648,1350)" d="m0 0h12l4 2-19 1-167 1h-77l-2-3z" fill="#626AB0"/>
<path transform="translate(181,989)" d="m0 0h9l9 4 2 3 30 2v1l-29 2-3 5-6 5-5 2h-7l-4-5-1-11 2-5z" fill="#318D72"/>
<path transform="translate(352,1087)" d="m0 0 1 2-7 11-6 9-8 13-8 16-5 9v10l16 8 9 4 12 5 10 5 12 3 7 2 18 2-2 2-15 1-11 3h-4l-1-3h-2v-3l-6-2-14-8-11-6-14-7-8-6-1-3 4-10 14-27 14-22z" fill="#F99E76"/>
<path transform="translate(1264,846)" d="m0 0h189l8 3 5 5 2 3v129h-1l-1-22v-92l-2-12-5-7-4-3-4-1-187-2z" fill="#3E478E"/>
<path transform="translate(162,938)" d="m0 0 8 1 6 4 4 7 1 7-9 3-5 3-8-1-4-1-2-3v-13l5-5z" fill="#2B886C"/>
<path transform="translate(804,993)" d="m0 0 6 1 3 3v6l-6 10-5 5-6 4-2 2-3-5-8-7 4-6 7-8z" fill="#F5A9A0"/>
<path transform="translate(355,1021)" d="m0 0 5 1 5 5 2 4v8l-4 6-3 2-9 2h-6l-2-3 1-13 5-9 2-2z" fill="#2A876C"/>
<path transform="translate(208,1368)" d="m0 0h25l49 2h61l3 2-2 1h-172l-1-3h17z" fill="#36408C"/>
<path transform="translate(296,983)" d="m0 0h10l8 5 5 6v2l2 1v5l1 4-3 7-2 4h-2l-1 3-5 1v2l-3 1-5 5-3 1-2 2-2-1-1-8h2v-2l4-2 5-3 5-5 4-6 1-6-4-8-5-3-6 1-6 3h-2l-1 3h-2v7h-1v-11l5-5z" fill="#429976"/>
<path transform="translate(183,852)" d="m0 0h3v2l4 2 2 4-1 10-3 5-7 4-8-3-4-7-1-8 3-6 2-2h9z" fill="#51AC83"/>
<path transform="translate(678,487)" d="m0 0h67v1h-64v22l13-1 307 1v1h-321l-2-2z" fill="#5963AD"/>
<path transform="translate(963,171)" d="m0 0m-5 1h5v2l-16 5-6 3-15 4-11 7-7 3-8 5h-2v2l-9 5h-2v2l-11 7-6 7-4 7-4 5h-2v2l-7 5-2 3h-2l2-5 11-12 7-8 10-11 15-10 13-9 16-8 24-8z" fill="#FDFDFD"/>
<path transform="translate(128,899)" d="m0 0 7 1 10 7 5 5-4 2-6 5-9 3-6-1-3-5-1-6 2-7z" fill="#2C896E"/>
<path transform="translate(318,1095)" d="m0 0 14 1 5 4v3l3 1-2 5-9 15-4-1-7-19-2-5h-3l1-3z" fill="#52AC85"/>
<path transform="translate(1911,583)" d="m0 0h1l1 7h2l1-2v37l-4 41-6 34-9 44-5 19-6 17-5-2 2-3h2l2-6 4-13 5-21 5-25 8-42 3-28 1-17v-24l-2-3z" fill="#F8F9FB"/>
<path transform="translate(828,584)" d="m0 0h30l16 4 16 6 19 10 2 3h-2v2l-5-2-9-6-24-9-14-3-20-1-16 2-6 1-1-1h-6l3-2z" fill="#65B6B4"/>
<path transform="translate(400,1353)" d="m0 0 2 4v12l-1 1h-51v-1l13-1 2-1-1-3 10-2 2 1v-2h10v-2h4l1-2v2l4-4h4z" fill="#2A876C"/>
<path transform="translate(1715,850)" d="m0 0h12l10 5 4 5 2 5-1 7-2 1 1-7-5-8-10-5h-10l-10 5-9 5 7 4 6 8 7 4h11l6-1-2 2-6 2h-8l-10-5-8-10-3-1h-7l-19 5-7 4-3 6-1-3 1-6 3-10h2l1-4 2 2-1 8 29-9 9-4 6-4z" fill="#6C74B4"/>
<path transform="translate(715,846)" d="m0 0h10l10 1v1l-20 3-1 5-1 14v59l-1 18-1 7h-1l-1-10v-85l2-10z" fill="#8990C3"/>
<path transform="translate(733,666)" d="m0 0h1l1 11v35l4 16 5 12 10 16 8 10 3 3v3h-3l-7-8-7-9-10-17-5-15-3-22v-12l2-19z" fill="#5DB6AE"/>
<path transform="translate(804,883)" d="m0 0h8l4 3v10l-7 9-12 11-6 5v-3l1-2h3v-2l8-7 4-7 1-8h-5l-4 5-6 4-8 7-4 2-2-2 8-7 8-10 7-7z" fill="#4AB7AA"/>
<path transform="translate(1469,862)" d="m0 0h1l1 5v186l-1 8h-1l-1-28z" fill="#DADEEE"/>
<path transform="translate(1468,859)" d="m0 0h1v206l-6 9-5 3h-12l3-2 9-3 4-4 3-7 1-8 1-67z" fill="#6C77B4"/>
<path transform="translate(262,966)" d="m0 0 2 3-1 11-5 19-3-2h-3l2 5-52-1v-1l29-2h13l7 1-7-8-5-5-9-11-2-6h3l8 10 13 13 4 2 2-10 3-17z" fill="#79A2BC"/>
<path transform="translate(178,850)" d="m0 0h10l5 4 2 5v12l-7 8-5 1 3 22 3 14v7l-4-3-5-25-2-13-4-6 8 2 6-4 2-4 1-10-3-5-2-1v-2h-3l-1 2h-6l-2-2z" fill="#53B4AA"/>
<path transform="translate(1811,750)" d="m0 0 9 1 9 4 5 6 1 9-4 7-10 6-3 1h-12l-10-6-6-7-4-1-16-1 1-2 15-2 6-9 9-4zm-4 3-13 5-4 7 1 4h2l2 4 9 8 3 1h11l10-5 4-5 1-6-3-7-7-5-3-1z" fill="#6E77B5"/>
<path transform="translate(1752,1370)" d="m0 0 3 1-1 4-5 1h-61l-16-1-159-1v-1h167l18 1h54z" fill="#515CAA"/>
<path transform="translate(1554,1205)" d="m0 0h119l5 2-1 3-1-1-14-1h-70l-40-1z" fill="#8498C2"/>
<path transform="translate(1451,846)" d="m0 0 8 2 6 4 3 5v129h-1l-1-22v-92l-2-12-5-7-4-3-5-2z" fill="#384782"/>
<path transform="translate(647,1148)" d="m0 0h2l3 8 4 10-2 4-5 4-1 5 6 1 11 5 1 2-22 1 2-4z" fill="#F99E76"/>
<path transform="translate(1688,901)" d="m0 0h14l8 4 4 4-1 3-4-5-8-4h-10l-9 3-5 4-4 9-1 1 11 8 5 2 15 1-3 2h-9l-12-4-6-6-6 1-20 9-10 6h-2v-3l16-9 14-7 7-3 4-9 5-4z" fill="#6F76B5"/>
<path transform="translate(780,737)" d="m0 0 2 4-1 13-2 9-3 4v2h-2v-2l-3-1-1-5v-11l5-9z" fill="#52AC86"/>
<path transform="translate(1019,720)" d="m0 0h2l2 9 9 6 7 1 29 1 71 1v1h-108l-6-3-4-4-2-8z" fill="#FDFDFD"/>
<path transform="translate(1611 1e3)" d="m0 0 1 2 2 1-2 5-14 56v4l2-1-1 3-4 2-2 5h-1l1-8 17-67z" fill="#525AA2"/>
<path transform="translate(949,707)" d="m0 0 2 3-1 12-5 13-10 17-8 12h-2l2-7 8-14 8-16z" fill="#669EAF"/>
<path transform="translate(522,637)" d="m0 0h1v51h2v52l-1 1-1 45h-1z" fill="#98A8CF"/>
<path transform="translate(735,847)" d="m0 0h23l56 1 7 1v1h-101v-1z" fill="#C3C9E5"/>
<path transform="translate(1880,939)" d="m0 0h44l36 3v4l-1-2-9-1-25-1h-61l-11 1h-14v-1z" fill="#74BDBE"/>
<path transform="translate(1841,1369)" d="m0 0h26l2 1v5l-1 1h-26l-2-1v-5z" fill="#2B3581"/>
<path transform="translate(1802,947)" d="m0 0h5l-4 2-18 5-18 4-27 9-26 11-22 11-2-1 10-6 28-13 18-7 25-8 24-5z" fill="#40B6A5"/>
<path transform="translate(1767,800)" d="m0 0h8l8 4 7 9-1 7-3 3h-2l-1-7-3-1-3-6-5-3-3-3-2-1z" fill="#2C3786"/>
<path transform="translate(122,864)" d="m0 0 9 2 3 2 4 1 14 14 9 11 8 8 1 6-7-6-10-11-8-10-11-9-5-4-7-3z" fill="#5F899F"/>
<path transform="translate(1659,876)" d="m0 0h2l-2 9-9 16-8 18-5 12-3-1 3-9 10-23 11-21z" fill="#5E66AE"/>
<path transform="translate(833,262)" d="m0 0 5 3 1 6-4 9-3 4h-2v2l-9 4-8 4-5 10-6 5-2 1h-8l-4-4 11 1 5-2 2-4 4-9 6-4 10-3 5-4 3-7h2l-2-9z" fill="#F79F78"/>
<path transform="translate(294,1042)" d="m0 0 12 12h-3l-7-6 2 5 4 5 3 9 2 3 2 7v2h-2l-7-14-9-16v-2l-13 2v-3l10-2 6 1z" fill="#4BB7A9"/>
<path transform="translate(255,996)" d="m0 0 5 5 11 13 15 15 4 5v4l-4-2-9-11-12-11-7-9-4-2-2-3v-3z" fill="#518695"/>
<path transform="translate(501,895)" d="m0 0 6 1 3 3 1 7-3 5-1 1-7-1-3-5 1-7z" fill="#282E72"/>
<path transform="translate(1784,1369)" d="m0 0h25l2 2-1 4-3 1h-20l-4-3z" fill="#36458B"/>
<path transform="translate(254,1040)" d="m0 0h5l2 3 5 3 1 4-2 4-10 3v-3l-4-2v-2h-2v-2l4-2z" fill="#429975"/>
<path transform="translate(1566,388)" d="m0 0h48l99 1v1h-130l-17-1z" fill="#FDFDFD"/>
<path transform="translate(736,726)" d="m0 0 3 2 5 12 10 16 8 10 3 3v3h-3l-7-8-7-9-10-17z" fill="#63A8AA"/>
<path transform="translate(559,897)" d="m0 0h6l3 2 1 8-4 6h-5l-3-4v-10z" fill="#2A3074"/>
<path transform="translate(1468,1033)" d="m0 0h1v32l-6 9-5 3h-12l3-2 9-3 4-4 3-7 2-26z" fill="#4F609C"/>
<path transform="translate(950,666)" d="m0 0 2 4 2 14v18l-3 16h-1v-8l-1-6v-25l1-7z" fill="#6FBFBB"/>
<path transform="translate(1902,708)" d="m0 0h2l-5 25-4 19-6 20-3 8-5-2 2-3h2l2-6 4-13 5-21 5-25z" fill="#F7F8FA"/>
<path transform="translate(805,631)" d="m0 0h1v13l1 7v6l6-1 2-3-1 12-3 6-2-1-5-16-1-6v-10z" fill="#555FAB"/>
<path transform="translate(283,1370)" d="m0 0h60l3 2-2 1h-54l-8-1z" fill="#2C3786"/>
<path transform="translate(169,903)" d="m0 0 8 6 5 8-2 3-5-5-24-1-2-4 23 1-3-5z" fill="#51B6A8"/>
<path transform="translate(352,1087)" d="m0 0 1 2-7 11-6 9-8 13-8 16-5 9v12l-4-2-1-3 4-10 14-27 14-22z" fill="#F6A28C"/>
<path transform="translate(1796,670)" d="m0 0h2l5 9v10l-4 11-5 5-7 6-9 3-4-1 12-5 8-7 4-7 2-12-3-9z" fill="#6E78B5"/>
<path transform="translate(227,925)" d="m0 0 4 1-1 8-6 24 1 6h-4l1-5h-2l5-26z" fill="#67A6B5"/>
<path transform="translate(1897,465)" d="m0 0 2 4 10 42 3 16 1 15-2-3v-2l-5 1 3-5v-10l-9-39-3-14z" fill="#F9F9FB"/>
<path transform="translate(881,591)" d="m0 0 9 3 19 10 2 3h-2v2l-5-2-9-6-21-8 4-1z" fill="#92BBC0"/>
<path transform="translate(814,589)" d="m0 0v3l-18 6-14 7-4 3-3-1 5-6 22-10z" fill="#5C81A4"/>
<path transform="translate(405,399)" d="m0 0 1 2-1 6-2 53-2-3v-28l1-25z" fill="#8A8FC4"/>
<path transform="translate(1029,625)" d="m0 0h33l3 2-29 1-9 2-5 5-1 6-1 3h-1l-1-9 3-6z" fill="#FCFCFC"/>
<path transform="translate(777,603)" d="m0 0 2 1-3 3-2 4-8 7-11 13-2 2-4 1 2-4 10-12 7-8z" fill="#6893B2"/>
<path transform="translate(790,319)" d="m0 0h1l2 10h2l9 11 4 4v2l5 2 4 4 7 4 1 4-10-6-10-8-5-5-6-7-4-8-1-6z" fill="#FDFDFD"/>
<path transform="translate(1630,929)" d="m0 0h1v11l2 1-8 26-4 12-3 2v-6l11-33z" fill="#575FA8"/>
<path transform="translate(756,909)" d="m0 0 4 2 4 5 9 6v2l7 1 7-3 3 1-8 7-3 1-10-6-9-10z" fill="#50B8AD"/>
<path transform="translate(1782,666)" d="m0 0h9l4 2-3 1-9-1v2l-5 2h-2l-6 9-2 7 1 14 4 7v5l-2-3-5-9-1-5v-8l4-11 7-9z" fill="#6C7AB4"/>
<path transform="translate(909,607)" d="m0 0 5 1 11 10 8 11-1 2h-3l-7-9-8-8-5-4z" fill="#7FA6B2"/>
<path transform="translate(1642,980)" d="m0 0 4 1-3 1v2l-11 6-14 10-3 2h-3l-1-3 1-8h2l1 6 9-5 11-8z" fill="#5A63A9"/>
<path transform="translate(712,929)" d="m0 0h1v34h23v2h-23l-4 5 1-16 1-7z" fill="#7498BC"/>
<path transform="translate(1621,903)" d="m0 0 3 1 5 11 3 9v6l4-1-1 11h-4l-1-11-7-19z" fill="#4D58A1"/>
<path transform="translate(181,918)" d="m0 0 6 2 7 10 9 9 1 5-4-2-11-11-8-10z" fill="#4EA691"/>
<path transform="translate(286,1082)" d="m0 0h10l10 4 6 4-3 1-8-4v-2h-13l-7 3-3 1 1 8-2 6-2-2-1-6 3-7 6-5z" fill="#47A386"/>
<path transform="translate(647,1179)" d="m0 0 7 1 11 5 1 2-22 1 2-4z" fill="#F89D75"/>
<path transform="translate(231,998)" d="m0 0h13l7 2 1 2-50-1v-1z" fill="#C8D0E6"/>
<path transform="translate(244,1040)" d="m0 0v3h-2v10h2l1 3 3 3h11l1 2-6 2-8-1-6-5-2-4v-6l4-6z" fill="#50B8AD"/>
<path transform="translate(315,1318)" d="m0 0h2l-1 4-5 1-1 3h-2v10l-5-5-4-5v-2z" fill="#5DB190"/>
<path transform="translate(754,889)" d="m0 0 6 1 17 17-5-1-4-4v-2h-3l-5-5-9-2-1 9 5 6-4-2-4-5 1-7z" fill="#48B7A9"/>
<path transform="translate(795,241)" d="m0 0 4 2 4 7 1 2-1 15-3 5-8 4-3-1 3-3 7-6 2-5-1-10-5-8z" fill="#F8A279"/>
<path transform="translate(1605,973)" d="m0 0 3 3 4 9v3h2l3-10 3 2-3 10-2 6h-1v-5h-2v8h-1l-3-15-4-9z" fill="#666EB2"/>
<path transform="translate(226,893)" d="m0 0h6v2l-9 2h-2l-2 4-1 9 3 8-1 3-5-6-1-9 4-8 5-4z" fill="#43A282"/>
<path transform="translate(1715,850)" d="m0 0h12l10 5 4 5 2 5-1 7-2 1 1-7-5-8-10-5h-10l-8 4-2-1 6-5z" fill="#6F77B5"/>
<path transform="translate(142,905)" d="m0 0 7 5 1 3-5 2-5 4-9 3-6-1-3-5-1-6h2l2 9h7l10-5h2z" fill="#43A181"/>
<path transform="translate(183,890)" d="m0 0h1l5 26v7l-4-3-4-22 1-1z" fill="#91C4CB"/>
<path transform="translate(262,966)" d="m0 0 2 3-1 11-5 19-4-5h2l2-10 3-17z" fill="#7CB5BE"/>
<path transform="translate(1661,922)" d="m0 0h5l-4 2v2l-19 9-6 4h-2v-3l16-9z" fill="#636BB0"/>
<path transform="translate(1681,966)" d="m0 0 4 2 3 6-1 9-4 6-6 5-4 1h-13l-7-3 2-1 11 2 11-2 6-5 2-4v-10z" fill="#6F77B5"/>
<path transform="translate(1765,797)" d="m0 0 12 1 7 4 7 8 1 2v7l-5 5-1-2h2l1-9-7-9-7-3v-2h-11z" fill="#6170B0"/>
<path transform="translate(812,290)" d="m0 0 2 3-3 5-3 6-6 5-2 1h-8l-4-4 11 1 5-2 2-4 4-9z" fill="#F79B58"/>
<path transform="translate(109,835)" d="m0 0h2l-1 3h-2l-1 5 3 12 7 4 1 2 4 2-3 1-9-6-5-6-2-4 1-6z" fill="#4AB7AA"/>
<path transform="translate(1599,1045)" d="m0 0 3 1-2 10-2 8v4l2-1-1 3-4 2-2 5h-1l1-8z" fill="#5965AA"/>
<path transform="translate(1659,876)" d="m0 0h2l-2 9-8 14-4 1 2-6 9-17z" fill="#5D67AD"/>
<path transform="translate(108,848)" d="m0 0 3 3 1 2 3 2-1 1 7 3 4 3 8 1 3 5-3 1-5-3-10-4-1-3-6-2-2-2z" fill="#4FAA83"/>
<path transform="translate(942,648)" d="m0 0h2l6 15 1 11-1 5h-1l-4-17-1-7-2-4z" fill="#51A592"/>
<path transform="translate(471 1e3)" d="m0 0 1 2-16 4-20 8-11 5-2-1 14-7 14-6 13-4z" fill="#F6A492"/>
<path transform="translate(1911,583)" d="m0 0h1l1 7h2l1-2v26l-2 3-1-18-2-3z" fill="#E4E7F2"/>
<path transform="translate(1752,1370)" d="m0 0 3 1-1 4-5 1h-61v-1l64-1z" fill="#8495C2"/>
<path transform="translate(1451,846)" d="m0 0 8 2 6 4 3 5v2h-2v5l-2-4-5-7-4-3-5-2z" fill="#58629B"/>
<path transform="translate(273,1017)" d="m0 0 7 6 10 11v4l-4-2-9-11-3-4z" fill="#8892C1"/>
<path transform="translate(203,940)" d="m0 0 5 5 9 11v5l-6-5-8-11z" fill="#64A2AB"/>
<path transform="translate(1841,1369)" d="m0 0h26l2 1v5l-1 1h-26l-2-1v-5zm1 1v4l1 1h24l-1-5z" fill="#8D90C3"/>
<path transform="translate(1668,920)" d="m0 0 7 2 8 6 5 2 15 1-3 2h-9l-12-4-6-6-6 1-5 1 4-2v-2z" fill="#6E77B4"/>
<path transform="translate(401,564)" d="m0 0h2l2 26 3 6-1 2-4-6-2-11z" fill="#8B90C5"/>
<path transform="translate(950,666)" d="m0 0 2 4 1 10-1 19-2 3-1-23 1-7z" fill="#C4CAE5"/>
<path transform="translate(1590,955)" d="m0 0 5 3 7 8 3 5v4h-2l-7-11-5-5-4-2z" fill="#5A62AA"/>
<path transform="translate(752,754)" d="m0 0 4 4 7 10 2 1v3h-3l-7-8-5-6v-2h2z" fill="#6DB1B4"/>
<path transform="translate(1894,748)" d="m0 0 1 4-6 20-3 8-5-2 2-3h2l2-6 4-13z" fill="#EDEFF6"/>
<path transform="translate(282,1106)" d="m0 0 4 1 17-1-4 3-10 3-6-1-3-4z" fill="#439E7F"/>
<path transform="translate(788,205)" d="m0 0h1l2 18-2 5-3 2-3-1 3-3 1-3v-15z" fill="#F99E76"/>
<path transform="translate(216,957)" d="m0 0 6 2 1 4 5 3 1 4-1 2-7-6-6-2z" fill="#45A788"/>
<path transform="translate(881,591)" d="m0 0 9 3 5 3v2h-6l-15-6 4-1z" fill="#90C0BF"/>
<path transform="translate(200,997)" d="m0 0h13l18 1v1l-29 2-2 4-1-2z" fill="#509FAA"/>
<path transform="translate(1465,1067)" d="m0 0 1 3-4 5-4 2h-12l3-2 9-3 4-4z" fill="#4F5697"/>
<path transform="translate(715,846)" d="m0 0h10l10 1v1l-20 3h-4l2-4z" fill="#757DB9"/>
<path transform="translate(733,666)" d="m0 0h1l1 11-1 27h-1l-1-19-1-7z" fill="#85B3C5"/>
<path transform="translate(1925,940)" d="m0 0h14l21 2v4l-1-2-9-1-25-1z" fill="#5AB9B1"/>
<path transform="translate(171,855)" d="m0 0 2 1-1 5 1 5 1 4-1 5-3-3-2-6 1-8z" fill="#4FB8AC"/>
<path transform="translate(1867,391)" d="m0 0h2l13 28-1 3-12-24z" fill="#FDFDFD"/>
<path transform="translate(390,1044)" d="m0 0 2 1-25 25v-3l7-7 7-8z" fill="#F5A494"/>
<path transform="translate(773,1018)" d="m0 0h1l1 9 8 4 4 1-2 2-7-1-6-5-1-7z" fill="#F89E76"/>
<path transform="translate(1767,684)" d="m0 0 1 4 1 14 4 7v5l-2-3-5-9-1-5v-8z" fill="#7175B6"/>
<path transform="translate(1494,326)" d="m0 0h6l-1 3-4 3-8 1-3-2 4-1v-2z" fill="#40B6A5"/>
<path transform="translate(293,1117)" d="m0 0 10 1 10 2v1h-9l-2 1h-7l-2-1z" fill="#55AE8D"/>
<path transform="translate(751,632)" d="m0 0h2l-2 5-6 10h-3l1-6 5-7z" fill="#6B8CB0"/>
<path transform="translate(352,1087)" d="m0 0 1 2-7 11-6 9-5 8-2-1 11-18z" fill="#F6A390"/>
<path transform="translate(200,960)" d="m0 0 15 3 3 2h-10l-15-3v-1z" fill="#8BBBC9"/>
<path transform="translate(1305,333)" d="m0 0 2 1-15 14-4 3h-2l-1 3-4-1-1-2 5-1 11-9z" fill="#F5AFA7"/>
<path transform="translate(180,953)" d="m0 0 13 5 7 2v1h-11l-8-3z" fill="#659EB4"/>
<path transform="translate(223,944)" d="m0 0 1 3h2l-1 8-1 7 1 2h-4l1-5h-2z" fill="#82BFC2"/>
<path transform="translate(1611 1e3)" d="m0 0 1 2 2 1-2 5-3 13-3-1 4-18z" fill="#646BB1"/>
<path transform="translate(1657,1009)" d="m0 0 2 1-7 7-8 6-6 2 5-5z" fill="#44A48E"/>
<path transform="translate(949,707)" d="m0 0 2 3-1 12-2 6-2-4 1-9z" fill="#67B1B5"/>
<path transform="translate(466,838)" d="m0 0h13l-1 2-12 1-6 4-3 3-1-2 4-5z" fill="#5B64AE"/>
<path transform="translate(1707,688)" d="m0 0 9 1 7 5 2 4-4-2-6-5h-10l-7 5 2-4z" fill="#6E78B4"/>
<path transform="translate(805,631)" d="m0 0h1v13l1 7-2 4-2-7v-10z" fill="#5E6BAF"/>
<path transform="translate(152,947)" d="m0 0h1l1 11 1 3 8 1 1 3h-7l-5-5z" fill="#51AB93"/>
<path transform="translate(795,241)" d="m0 0 4 2 4 7 1 2v6l-2 2-3-11-4-6z" fill="#F7A07F"/>
<path transform="translate(1630,929)" d="m0 0h1v11l2 1-4 14-2-3 2-10z" fill="#6269AF"/>
<path transform="translate(1915,614)" d="m0 0h1v11l-1 13-2-1v-14z" fill="#F3F4F8"/>
<path transform="translate(1454,358)" d="m0 0 2 3v7h-2v3h-2l-2 4-1-3 1-4 2-4h2z" fill="#40B6A5"/>
<path transform="translate(259,980)" d="m0 0h1l1 8-3 11-4-5h2l2-10z" fill="#B2C2DB"/>
<path transform="translate(194,933)" d="m0 0 4 1 5 5 1 5-4-2-7-7z" fill="#47A187"/>
<path transform="translate(149,910)" d="m0 0 22 1v1l-13 1-7 1z" fill="#D0D5EA"/>
<path transform="translate(780,1012)" d="m0 0 6 1 3 3-1 2-7-2-4 2-3-1 4-4z" fill="#F99E76"/>
<path transform="translate(175,910)" d="m0 0 2 4-8 1-14-1 3-2 16-1z" fill="#489090"/>
<path transform="translate(405,399)" d="m0 0 1 2-2 19-2 1v-17z" fill="#8799C4"/>
<path transform="translate(1784,1369)" d="m0 0h25l2 2-1 4h-2v-4l-23-1-1 4-1-4z" fill="#A4ABD1"/>
<path transform="translate(1617,978)" d="m0 0 3 2-3 10-2 6h-1l-1-6z" fill="#5F69AF"/>
<path transform="translate(552,1262)" d="m0 0 2 3v10l-6 7-2-1 4-6z" fill="#FDFDFD"/>
<path transform="translate(1667,1205)" d="m0 0 9 1 2 1-1 3-1-1-14-1-3-2z" fill="#8BA7C6"/>
<path transform="translate(313,1097)" d="m0 0 6 1 2 3 1 6 2 11-2-2-6-17h-3z" fill="#80C5C3"/>
<path transform="translate(1649,898)" d="m0 0 1 3-6 13-2-3 3-9z" fill="#5A62AA"/>
<path transform="translate(930,751)" d="m0 0 3 1-1 5-5 7h-2l2-7z" fill="#7092B8"/>
<path transform="translate(381,1318)" d="m0 0h5l7 4-4 1-1 2-7-3z" fill="#2A876C"/>
<path transform="translate(263,935)" d="m0 0 10 1 6 3-4 1-5-2-9 1-1 2-2-1z" fill="#43B6A6"/>
<path transform="translate(122,864)" d="m0 0 9 2 3 2 4 1 2 3-4 2-7-6-7-3z" fill="#5EA9A8"/>
<path transform="translate(1457,628)" d="m0 0 5 2 4 4 1 3v8l-2 1-1-11h-2l-1-3z" fill="#FDFDFD"/>
<path transform="translate(1642,980)" d="m0 0 4 1-3 1v2l-8 4h-3l1-3z" fill="#4D589E"/>
<path transform="translate(1621,903)" d="m0 0 3 1 4 8v6h-2l-5-13z" fill="#4D549C"/>
<path transform="translate(479,890)" d="m0 0h1v8l-1 1h-13l-3-3 16 1z" fill="#4954A0"/>
<path transform="translate(226,893)" d="m0 0h6v2l-9 2h-2l-2 4h-2l2-4 4-3z" fill="#42A385"/>
<path transform="translate(178,850)" d="m0 0h10v3l-5-1-1 2h-6l-2-2z" fill="#4AB7A9"/>
<path transform="translate(290,1036)" d="m0 0 5 5-1 4h-6v-2h2l-2-5h2z" fill="#48A885"/>
<path transform="translate(733,718)" d="m0 0 1 2h2l2 7-1 1 1 8-2-3-3-10z" fill="#8BBCBC"/>
<path transform="translate(802,305)" d="m0 0 1 3-3 2h-8l-4-4 11 1z" fill="#F89D70"/>
<path transform="translate(283,1028)" d="m0 0 3 1 4 5v4l-4-2-5-7z" fill="#68A2B5"/>
<path transform="translate(247,991)" d="m0 0 6 2 2 4h-3l2 5-4-2-1-4z" fill="#5E90AD"/>
<path transform="translate(187,924)" d="m0 0 4 2 5 7-4 1-5-6z" fill="#689CA5"/>
<path transform="translate(946,663)" d="m0 0h4l1 11-1 5h-1l-3-13z" fill="#67AEB7"/>
<path transform="translate(162,938)" d="m0 0 8 1-3 2-8 1-5 5-1-2 5-5z" fill="#68B4A8"/>
<path transform="translate(168,940)" d="m0 0 6 1 5 6 1 5-5-5v-2h-2l-1-2-4-1z" fill="#42A080"/>
<path transform="translate(745,747)" d="m0 0 4 1 3 5v3l-4-1-3-5z" fill="#5BAD98"/>
<path transform="translate(931,630)" d="m0 0 5 3 4 7-1 2-2-1v-3h-2v-2h-3z" fill="#519493"/>
<path transform="translate(827,612)" d="m0 0 14 1v1l-17 1-3 1-3-1z" fill="#717CB9"/>
<path transform="translate(771,269)" d="m0 0 4 2 7 3 6 1v1h-10l-5-3z" fill="#F79E3D"/>
<path transform="translate(365,1070)" d="m0 0v3l-10 13-2 1 2-5 9-11z" fill="#F6A392"/>
<path transform="translate(293,1029)" d="m0 0 3 1 1 9-3 2-1-5z" fill="#81B8C2"/>
<path transform="translate(164,898)" d="m0 0 5 4 1 6-7-6-2-3z" fill="#8998C3"/>
<path transform="translate(1653,826)" d="m0 0 5 5 2 5-3 1-5-7z" fill="#6A79B3"/>
<path transform="translate(1902,708)" d="m0 0h2l-3 15-2 1 1-9z" fill="#FDFDFD"/>
<path transform="translate(308,1080)" d="m0 0h2v2l3 1v2l2 1-1 4-3-1z" fill="#4CB7AA"/>
<path transform="translate(1910,530)" d="m0 0h2l1 12-2-3v-2l-5 1z" fill="#E4E7F2"/>
<path transform="translate(276,1089)" d="m0 0 2 4 1 4-2 6-2-2-1-6z" fill="#51A68A"/>
<path transform="translate(296,1083)" d="m0 0 6 1 10 6-3 1-8-4v-2l-5-1z" fill="#4FA093"/>
<path transform="translate(255,996)" d="m0 0 3 3v5l-4-1-2-3v-3z" fill="#3B997A"/>
<path transform="translate(1651,890)" d="m0 0h4l-2 5-3 4-3 1 2-6z" fill="#6269B0"/>
<path transform="translate(758,625)" d="m0 0v3l-5 5-4 1 2-4 3-4z" fill="#8CABC7"/>
<path transform="translate(762,617)" d="m0 0h2l-1 4-5 5-3-1z" fill="#6187AF"/>
<path transform="translate(1465,1061)" d="m0 0h4l-1 6-2 2-3-1z" fill="#7F87C1"/>
<path transform="translate(1607,1019)" d="m0 0h1l-1 10-2 4-1-8z" fill="#565DA6"/>
<path transform="translate(1612,991)" d="m0 0h2v8l4-1-1 3-5 1-1-3z" fill="#49539F"/>
<path transform="translate(222,964)" d="m0 0 5 1 2 4-1 3-7-6z" fill="#62A79D"/>
<path transform="translate(1626,952)" d="m0 0h2l-1 9-1 3h-2l1-9z" fill="#5058A1"/>
<path transform="translate(1628,915)" d="m0 0 2 3 2 6-1 4-2-1-2-9z" fill="#606BAF"/>
<path transform="translate(142,905)" d="m0 0 7 5 1 3-5 1-2-3z" fill="#4CA68B"/>
<path transform="translate(583,884)" d="m0 0h1l1 14 4 2-5 2-1-4z" fill="#434E9C"/>
<path transform="translate(137,872)" d="m0 0 5 1 3 5v2l-4-2-4-5z" fill="#4E6D8F"/>
<path transform="translate(316,1148)" d="m0 0h2l1 11-4-2-1-3z" fill="#F7A187"/>
<path transform="translate(286,1044)" d="m0 0 4 2-4 2-8 1v-3z" fill="#5FB5B2"/>
<path transform="translate(871,589)" d="m0 0 9 1 2 3-11-1z" fill="#519E95"/>
<path transform="translate(1594,1066)" d="m0 0 4 2 2-1-1 3-4 2-2 5h-1l1-8z" fill="#5E82AD"/>
<path transform="translate(243,986)" d="m0 0 4 1 4 5h-3l-1 2-4-5z" fill="#68AAB1"/>
<path transform="translate(116,832)" d="m0 0 7 1 1 2-10 1-3-2z" fill="#40B6A5"/>
<path transform="translate(491,801)" d="m0 0 2 1-3 4h-2l-2 6-1 2h-2l2-6z" fill="#5E6EAF"/>
<path transform="translate(818,586)" d="m0 0 3 3-4 2-9-1 3-2z" fill="#9DC3D2"/>
<path transform="translate(1832,772)" d="m0 0 1 2-5 5-8 4 1-3 8-5z" fill="#6781B2"/>
<path transform="translate(1887,770)" d="m0 0 1 4-2 6-5-2 2-3h2z" fill="#E4E7F2"/>
<path transform="translate(949,704)" d="m0 0h3l1 6-2 8h-1v-8z" fill="#C1C8E4"/>
<path transform="translate(895,597)" d="m0 0 7 3-2 4-8-4 3-1z" fill="#82BABE"/>
<path transform="translate(799,592)" d="m0 0 1 2 4-2h6l-3 2-8 3-3-1h2l-1-3z" fill="#B7D1DD"/>
<path transform="translate(180,953)" d="m0 0 9 4-1 2h-6z" fill="#5EA6A7"/>
<path transform="translate(185,905)" d="m0 0 2 2 2 12-2-1-2-5z" fill="#567A9C"/>
<path transform="translate(771,607)" d="m0 0 2 1-5 6-2 2-1 3-1-2-2-1z" fill="#8DB0C7"/>
<path transform="translate(833,262)" d="m0 0 5 3 1 6-2 2-4-9z" fill="#F9AF87"/>
<path transform="translate(1507,158)" d="m0 0h9l6 1v1l-15-1z" fill="#FDFDFD"/>
<path transform="translate(221,970)" d="m0 0 4 2v2l-4-2z" fill="#E4E7F2"/>
<path transform="translate(1493,157)" d="m0 0h8v1h-8z" fill="#FDFDFD"/>
<path transform="translate(1522,160)" d="m0 0h7v1h-7z" fill="#FDFDFD"/>
<path transform="translate(1539,162)" d="m0 0h5v1h-5z" fill="#FDFDFD"/>
<path transform="translate(1896,461)" d="m0 0 1 4z" fill="#FDFDFD"/>
<path transform="translate(1556,165)" d="m0 0 4 1z" fill="#FDFDFD"/>
<path transform="translate(1531,161)" d="m0 0 4 1z" fill="#FDFDFD"/>
<path transform="translate(1626,184)" d="m0 0 3 1z" fill="#FDFDFD"/>
<path transform="translate(1623,183)" d="m0 0 3 1z" fill="#FDFDFD"/>
<path transform="translate(1609,179)" d="m0 0 3 1z" fill="#FDFDFD"/>
<path transform="translate(1606,178)" d="m0 0 3 1z" fill="#FDFDFD"/>
<path transform="translate(1599,176)" d="m0 0 3 1z" fill="#FDFDFD"/>
<path transform="translate(1551,164)" d="m0 0 3 1z" fill="#FDFDFD"/>
<path transform="translate(1717,390)" d="m0 0 2 1z" fill="#FDFDFD"/>
<path transform="translate(1722,389)" d="m0 0 2 1z" fill="#FDFDFD"/>
<path transform="translate(1621,182)" d="m0 0 2 1z" fill="#FDFDFD"/>
<path transform="translate(1603,177)" d="m0 0 2 1z" fill="#FDFDFD"/>
<path transform="translate(1596,175)" d="m0 0 2 1z" fill="#FDFDFD"/>
<path transform="translate(1593,174)" d="m0 0 2 1z" fill="#FDFDFD"/>
<path transform="translate(1586,172)" d="m0 0 2 1z" fill="#F0F2F7"/>
<path transform="translate(1582,171)" d="m0 0 2 1z" fill="#FDFDFD"/>
<path transform="translate(1546,163)" d="m0 0 2 1z" fill="#FDFDFD"/>
<path transform="translate(225,974)" d="m0 0" fill="#E4E7F2"/>
<path transform="translate(1720,389)" d="m0 0" fill="#FDFDFD"/>
<path transform="translate(1590,173)" d="m0 0" fill="#FDFDFD"/>
<path transform="translate(1575,169)" d="m0 0" fill="#FDFDFD"/>
</svg>
